<svg width="425" height="536" viewBox="0 0 425 536" fill="none" xmlns="http://www.w3.org/2000/svg">
<g clip-path="url(#clip0_142_3166)">
<rect width="322.45" height="67.0506" transform="translate(28.5811 367.325) rotate(-8.70552)" fill="#42032B"/>
<path d="M122.756 397.444L119.454 375.877L126.571 374.787C128.091 374.555 129.43 374.581 130.587 374.866C131.745 375.151 132.691 375.7 133.425 376.513C134.159 377.325 134.63 378.409 134.837 379.765C135.051 381.162 134.909 382.36 134.411 383.362C133.933 384.36 133.172 385.159 132.129 385.761C131.107 386.359 129.877 386.768 128.439 386.988L123.91 387.681L125.344 397.047L122.756 397.444ZM123.575 385.494L128.042 384.81C129.768 384.546 130.939 384.03 131.558 383.263C132.173 382.475 132.383 381.444 132.188 380.171C131.99 378.877 131.481 377.956 130.661 377.409C129.839 376.841 128.565 376.689 126.839 376.953L122.372 377.637L123.575 385.494ZM140.598 394.712L137.295 373.145L143.673 372.169C145.193 371.936 146.522 371.964 147.659 372.252C148.793 372.52 149.715 373.051 150.425 373.846C151.136 374.642 151.595 375.717 151.802 377.073C152.06 378.757 151.814 380.098 151.062 381.096C150.332 382.091 149.237 382.836 147.779 383.333L155.509 392.428L152.305 392.919L145.297 384.217L141.723 384.765L143.186 394.315L140.598 394.712ZM141.388 382.577L145.116 382.006C146.266 381.83 147.16 381.557 147.797 381.186C148.431 380.795 148.847 380.289 149.047 379.67C149.246 379.051 149.282 378.32 149.153 377.478C149.021 376.616 148.767 375.919 148.391 375.388C148.016 374.857 147.468 374.509 146.75 374.346C146.028 374.162 145.092 374.159 143.942 374.335L140.214 374.906L141.388 382.577ZM168.113 390.877C166.47 391.129 164.948 391.078 163.549 390.724C162.146 390.351 160.906 389.731 159.828 388.866C158.749 388.001 157.86 386.929 157.159 385.649C156.479 384.365 156.018 382.933 155.776 381.352C155.534 379.77 155.545 378.265 155.81 376.837C156.095 375.406 156.623 374.117 157.393 372.969C158.163 371.821 159.153 370.87 160.362 370.118C161.589 369.341 163.034 368.826 164.697 368.571C166.341 368.319 167.852 368.372 169.231 368.728C170.627 369.061 171.864 369.66 172.943 370.525C174.018 371.369 174.907 372.442 175.611 373.742C176.311 375.022 176.786 376.474 177.034 378.096C177.283 379.719 177.266 381.256 176.984 382.708C176.698 384.139 176.171 385.428 175.4 386.576C174.627 387.704 173.626 388.645 172.396 389.401C171.184 390.133 169.756 390.625 168.113 390.877ZM167.764 388.597C169.448 388.339 170.828 387.739 171.903 386.797C172.977 385.854 173.721 384.668 174.133 383.239C174.565 381.806 174.649 380.227 174.385 378.502C174.114 376.736 173.56 375.244 172.722 374.027C171.901 372.786 170.839 371.887 169.534 371.33C168.23 370.773 166.735 370.624 165.051 370.882C163.388 371.136 162.018 371.735 160.943 372.677C159.868 373.62 159.115 374.807 158.682 376.24C158.247 377.652 158.161 379.22 158.426 380.946C158.687 382.651 159.239 384.132 160.084 385.39C160.925 386.628 161.999 387.535 163.307 388.113C164.614 388.69 166.1 388.852 167.764 388.597ZM182.419 388.308L179.117 366.742L186.234 365.652C187.754 365.419 189.092 365.445 190.25 365.73C191.408 366.016 192.354 366.564 193.088 367.377C193.822 368.19 194.293 369.274 194.5 370.629C194.714 372.026 194.572 373.225 194.074 374.226C193.596 375.224 192.835 376.024 191.792 376.625C190.77 377.223 189.54 377.632 188.102 377.852L183.573 378.546L185.007 387.912L182.419 388.308ZM183.238 376.358L187.705 375.674C189.431 375.41 190.602 374.894 191.221 374.127C191.836 373.339 192.046 372.308 191.851 371.035C191.653 369.741 191.144 368.82 190.324 368.273C189.502 367.705 188.228 367.554 186.502 367.818L182.035 368.502L183.238 376.358ZM200.261 385.576L196.958 364.01L210.299 361.967L210.624 364.093L199.872 365.739L200.943 372.733L210.34 371.294L210.66 373.389L201.264 374.828L202.523 383.054L213.276 381.408L213.601 383.533L200.261 385.576ZM217.651 382.913L214.349 361.347L220.726 360.37C222.246 360.138 223.575 360.165 224.712 360.454C225.846 360.721 226.768 361.253 227.479 362.048C228.189 362.843 228.648 363.919 228.856 365.274C229.113 366.958 228.867 368.299 228.116 369.297C227.385 370.292 226.291 371.038 224.832 371.534L232.563 380.63L229.359 381.121L222.35 372.419L218.777 372.966L220.239 382.517L217.651 382.913ZM218.442 370.779L222.17 370.208C223.32 370.032 224.213 369.758 224.85 369.387C225.484 368.996 225.901 368.491 226.1 367.872C226.3 367.253 226.335 366.522 226.206 365.68C226.074 364.817 225.82 364.12 225.444 363.589C225.069 363.058 224.522 362.711 223.803 362.548C223.081 362.364 222.145 362.36 220.995 362.536L217.267 363.107L218.442 370.779ZM240.515 379.412L237.539 359.972L231.099 360.958L230.774 358.832L246.24 356.464L246.566 358.589L240.127 359.575L243.103 379.016L240.515 379.412ZM258.063 376.725L256.809 368.53L247.737 356.234L250.663 355.786L257.725 365.867L261.447 354.135L264.343 353.692L259.397 368.134L260.651 376.329L258.063 376.725Z" fill="white"/>
</g>
<rect width="330.153" height="67.0506" transform="translate(52.5771) rotate(7.34963)" fill="#42032B"/>
<path d="M164.355 58.8075L167.146 37.1689L169.743 37.5039L167.219 57.0713L177.296 58.3712L177.029 60.4423L164.355 58.8075ZM188.356 62.2804C186.707 62.0677 185.259 61.5981 184.012 60.8716C182.768 60.1244 181.747 59.1861 180.95 58.0567C180.153 56.9273 179.594 55.6506 179.275 54.2267C178.977 52.8054 178.93 51.3014 179.134 49.7145C179.339 48.1277 179.766 46.6848 180.416 45.3858C181.086 44.0894 181.949 42.9962 183.007 42.106C184.065 41.2158 185.279 40.5762 186.649 40.1873C188.042 39.7804 189.573 39.6846 191.243 39.8999C192.891 40.1125 194.329 40.5808 195.555 41.3047C196.805 42.0106 197.829 42.9283 198.626 44.0577C199.425 45.1665 199.984 46.4432 200.3 47.8877C200.619 49.3116 200.674 50.8376 200.464 52.4657C200.254 54.0937 199.813 55.5662 199.14 56.8832C198.47 58.1795 197.606 59.2728 196.548 60.163C195.493 61.0326 194.271 61.6605 192.88 62.0468C191.512 62.4152 190.004 62.493 188.356 62.2804ZM188.651 59.9928C190.341 60.2108 191.832 60.0156 193.126 59.4073C194.42 58.799 195.462 57.8649 196.253 56.6051C197.065 55.348 197.582 53.8539 197.805 52.1228C198.034 50.3505 197.914 48.7637 197.445 47.3623C197 45.9431 196.227 44.7854 195.128 43.8893C194.028 42.9933 192.633 42.4363 190.943 42.2183C189.274 42.003 187.793 42.1995 186.499 42.8078C185.206 43.4162 184.153 44.3489 183.341 45.606C182.532 46.8425 182.016 48.3263 181.793 50.0574C181.572 51.7679 181.694 53.3444 182.157 54.787C182.623 56.2089 183.405 57.3782 184.502 58.2949C185.598 59.2115 186.982 59.7775 188.651 59.9928ZM199.915 63.3941L210.681 42.7842L213.432 43.1391L218.586 65.8024L215.834 65.4475L214.574 59.6281L205.362 58.44L202.635 63.745L199.915 63.3941ZM206.406 56.4376L214.072 57.4264L211.618 46.2364L206.406 56.4376ZM221.802 66.2173L224.593 44.5787L227.19 44.9136L236.484 63.7426L238.72 46.4008L241.317 46.7358L238.526 68.3744L235.929 68.0394L226.636 49.2104L224.399 66.5522L221.802 66.2173ZM249.961 70.2264C248.497 70.0376 247.203 69.5983 246.077 68.9083C244.971 68.221 244.133 67.3272 243.563 66.227C243.015 65.1089 242.836 63.8183 243.025 62.3551L245.745 62.7059C245.559 64.1485 245.886 65.3534 246.725 66.3206C247.566 67.2672 248.739 67.8375 250.244 68.0316C251.563 68.2017 252.696 68.0232 253.644 67.4959C254.613 66.9714 255.173 66.1218 255.324 64.9471C255.428 64.1434 255.366 63.4859 255.138 62.9747C254.934 62.4456 254.574 61.9906 254.058 61.6097C253.544 61.2082 252.883 60.8087 252.075 60.4112C251.267 60.0137 250.312 59.5447 249.208 59.0043C248.226 58.5005 247.394 57.9637 246.713 57.394C246.053 56.827 245.571 56.1782 245.267 55.4476C244.966 54.6964 244.878 53.8365 245.003 52.868C245.147 51.5876 245.574 50.5532 246.283 49.7647C247.016 48.9583 247.926 48.3949 249.015 48.0744C250.127 47.736 251.312 47.6478 252.569 47.81C253.847 47.9748 254.96 48.3593 255.909 48.9635C256.881 49.5498 257.617 50.3362 258.118 51.3227C258.622 52.2886 258.802 53.4118 258.658 54.6921L255.938 54.3412C256.079 53.249 255.803 52.3021 255.11 51.5004C254.42 50.6781 253.446 50.1859 252.189 50.0237C251.082 49.839 250.098 49.9949 249.238 50.4915C248.377 50.9881 247.873 51.8135 247.724 52.9675C247.626 53.7301 247.702 54.3579 247.953 54.8512C248.226 55.3265 248.734 55.7795 249.474 56.2102C250.215 56.641 251.245 57.1824 252.565 57.8345C253.511 58.2918 254.352 58.7564 255.087 59.2284C255.825 59.6797 256.43 60.1873 256.902 60.751C257.377 61.2941 257.715 61.9243 257.916 62.6415C258.119 63.3382 258.158 64.1709 258.033 65.1394C257.866 66.4378 257.384 67.4964 256.587 68.3155C255.813 69.1166 254.839 69.6823 253.665 70.0128C252.514 70.3253 251.279 70.3965 249.961 70.2264Z" fill="white"/>
<g clip-path="url(#clip1_142_3166)">
<rect width="292.739" height="67.0506" transform="translate(28.5811 243.112) rotate(-12.4765)" fill="#AC4185"/>
<path d="M124.219 267.424C122.778 267.743 121.411 267.769 120.118 267.501C118.845 267.23 117.753 266.673 116.843 265.832C115.95 264.965 115.343 263.812 115.024 262.372L117.702 261.779C118.017 263.199 118.732 264.222 119.85 264.847C120.963 265.452 122.26 265.591 123.741 265.263C125.039 264.976 126.045 264.424 126.758 263.606C127.491 262.784 127.73 261.795 127.474 260.639C127.299 259.847 127.017 259.25 126.63 258.846C126.259 258.417 125.765 258.112 125.15 257.929C124.531 257.725 123.774 257.573 122.879 257.473C121.984 257.373 120.926 257.256 119.705 257.122C118.61 256.982 117.645 256.759 116.811 256.454C115.998 256.144 115.325 255.697 114.791 255.113C114.253 254.509 113.878 253.73 113.667 252.776C113.369 251.523 113.419 250.405 113.819 249.423C114.235 248.415 114.9 247.577 115.816 246.906C116.748 246.21 117.832 245.725 119.07 245.452C120.328 245.173 121.505 245.157 122.603 245.404C123.716 245.626 124.675 246.116 125.482 246.874C126.283 247.612 126.833 248.607 127.132 249.861L124.454 250.453C124.216 249.378 123.635 248.581 122.712 248.061C121.784 247.522 120.701 247.389 119.463 247.663C118.359 247.865 117.486 248.345 116.845 249.104C116.204 249.863 116.01 250.811 116.261 251.947C116.427 252.697 116.712 253.262 117.115 253.641C117.534 253.995 118.165 254.25 119.007 254.404C119.85 254.558 121.003 254.718 122.465 254.883C123.511 254.993 124.46 255.144 125.312 255.339C126.159 255.513 126.9 255.786 127.535 256.156C128.166 256.506 128.697 256.984 129.13 257.591C129.557 258.177 129.877 258.947 130.088 259.901C130.37 261.179 130.276 262.338 129.804 263.379C129.348 264.395 128.623 265.258 127.631 265.967C126.655 266.651 125.517 267.137 124.219 267.424ZM142.725 263.329C140.859 263.742 139.264 263.701 137.942 263.206C136.615 262.691 135.54 261.876 134.719 260.759C133.913 259.618 133.348 258.317 133.025 256.856L130.049 243.405L132.605 242.84L135.588 256.321C136.046 258.391 136.875 259.782 138.076 260.495C139.277 261.209 140.678 261.388 142.281 261.033C143.884 260.679 145.069 259.927 145.836 258.778C146.604 257.629 146.758 256.02 146.3 253.951L143.318 240.47L145.874 239.904L148.85 253.355C149.196 254.917 149.252 256.277 149.019 257.436C148.786 258.594 148.343 259.575 147.691 260.379C147.059 261.178 146.308 261.824 145.438 262.314C144.563 262.784 143.659 263.123 142.725 263.329ZM154.916 260.249L150.203 238.946L157.233 237.391C158.734 237.058 160.072 236.996 161.246 237.205C162.42 237.413 163.4 237.899 164.186 238.661C164.971 239.424 165.513 240.475 165.809 241.814C166.114 243.193 166.051 244.399 165.62 245.431C165.208 246.458 164.502 247.306 163.501 247.974C162.52 248.638 161.319 249.128 159.899 249.442L155.426 250.432L157.473 259.683L154.916 260.249ZM154.948 248.271L159.36 247.295C161.064 246.917 162.2 246.326 162.766 245.519C163.328 244.693 163.47 243.651 163.192 242.393C162.909 241.115 162.341 240.229 161.487 239.737C160.629 239.225 159.347 239.157 157.643 239.534L153.23 240.511L154.948 248.271ZM172.54 256.349L167.826 235.047L174.856 233.491C176.357 233.159 177.695 233.097 178.869 233.305C180.043 233.514 181.023 233.999 181.809 234.762C182.595 235.524 183.136 236.575 183.432 237.914C183.737 239.294 183.674 240.499 183.243 241.531C182.832 242.559 182.126 243.407 181.124 244.075C180.143 244.739 178.943 245.228 177.523 245.542L173.049 246.532L175.096 255.784L172.54 256.349ZM172.571 244.371L176.984 243.395C178.688 243.018 179.823 242.426 180.39 241.62C180.952 240.793 181.093 239.751 180.815 238.493C180.532 237.215 179.964 236.33 179.11 235.838C178.252 235.325 176.971 235.258 175.267 235.635L170.854 236.611L172.571 244.371ZM199.921 250.674C198.298 251.033 196.777 251.082 195.357 250.822C193.933 250.541 192.655 250.004 191.522 249.212C190.389 248.42 189.431 247.408 188.648 246.177C187.885 244.941 187.33 243.542 186.985 241.98C186.639 240.418 186.551 238.916 186.722 237.474C186.912 236.027 187.354 234.705 188.047 233.509C188.74 232.313 189.665 231.3 190.822 230.469C191.995 229.614 193.403 229.004 195.046 228.641C196.669 228.282 198.181 228.234 199.58 228.499C200.995 228.74 202.269 229.256 203.402 230.048C204.53 230.82 205.489 231.831 206.276 233.083C207.059 234.314 207.628 235.731 207.983 237.334C208.338 238.937 208.422 240.472 208.236 241.939C208.045 243.386 207.603 244.707 206.91 245.903C206.213 247.079 205.275 248.084 204.098 248.92C202.937 249.73 201.544 250.315 199.921 250.674ZM199.423 248.422C201.087 248.054 202.424 247.364 203.434 246.353C204.445 245.342 205.109 244.11 205.426 242.656C205.763 241.198 205.743 239.617 205.366 237.913C204.98 236.168 204.329 234.716 203.412 233.557C202.512 232.373 201.393 231.546 200.054 231.076C198.716 230.606 197.215 230.555 195.551 230.923C193.908 231.287 192.581 231.974 191.57 232.985C190.56 233.996 189.886 235.231 189.549 236.688C189.207 238.126 189.225 239.697 189.602 241.401C189.974 243.085 190.623 244.527 191.549 245.727C192.469 246.906 193.601 247.741 194.944 248.232C196.287 248.722 197.78 248.785 199.423 248.422ZM214.028 247.169L209.314 225.867L215.613 224.473C217.115 224.141 218.442 224.081 219.596 224.294C220.745 224.487 221.701 224.956 222.462 225.703C223.223 226.45 223.751 227.493 224.048 228.832C224.416 230.495 224.258 231.85 223.574 232.895C222.91 233.935 221.867 234.751 220.445 235.343L228.757 243.91L225.592 244.611L218.027 236.389L214.496 237.17L216.584 246.604L214.028 247.169ZM214.018 235.009L217.701 234.194C218.837 233.943 219.71 233.611 220.322 233.199C220.928 232.767 221.311 232.236 221.469 231.605C221.627 230.974 221.615 230.242 221.431 229.411C221.242 228.559 220.943 227.88 220.533 227.375C220.123 226.869 219.555 226.559 218.827 226.443C218.094 226.308 217.16 226.365 216.024 226.617L212.342 227.431L214.018 235.009ZM236.612 242.172L232.363 222.969L226.003 224.377L225.538 222.277L240.815 218.897L241.28 220.997L234.919 222.404L239.168 241.607L236.612 242.172Z" fill="white"/>
</g>
<g clip-path="url(#clip2_142_3166)">
<rect width="344.458" height="67.0506" transform="translate(34.626 113.41) rotate(12.7743)" fill="#42032B"/>
<path d="M139.874 182.798C138.435 182.472 137.188 181.912 136.132 181.119C135.097 180.33 134.347 179.361 133.883 178.212C133.444 177.047 133.388 175.745 133.714 174.307L136.389 174.913C136.067 176.332 136.278 177.562 137.022 178.604C137.77 179.626 138.884 180.305 140.364 180.64C141.66 180.934 142.806 180.863 143.799 180.428C144.813 179.998 145.451 179.205 145.713 178.05C145.892 177.259 145.893 176.599 145.715 176.069C145.561 175.523 145.246 175.035 144.767 174.607C144.294 174.159 143.674 173.699 142.907 173.227C142.141 172.755 141.234 172.198 140.186 171.555C139.256 170.961 138.478 170.348 137.855 169.716C137.251 169.089 136.832 168.398 136.599 167.642C136.37 166.866 136.364 166.001 136.58 165.049C136.844 163.788 137.367 162.798 138.148 162.081C138.953 161.347 139.913 160.872 141.027 160.656C142.166 160.424 143.354 160.449 144.59 160.729C145.847 161.014 146.918 161.502 147.806 162.193C148.718 162.868 149.377 163.721 149.783 164.75C150.193 165.76 150.266 166.895 150.001 168.156L147.326 167.549C147.57 166.475 147.385 165.507 146.771 164.643C146.162 163.759 145.239 163.177 144.003 162.897C142.918 162.608 141.924 162.67 141.02 163.083C140.117 163.497 139.537 164.27 139.279 165.405C139.109 166.155 139.126 166.787 139.329 167.302C139.556 167.801 140.019 168.3 140.715 168.799C141.412 169.298 142.386 169.934 143.638 170.708C144.537 171.253 145.331 171.795 146.018 172.334C146.71 172.853 147.264 173.416 147.681 174.022C148.102 174.607 148.379 175.266 148.511 175.999C148.647 176.712 148.608 177.545 148.392 178.497C148.102 179.774 147.522 180.782 146.651 181.522C145.805 182.247 144.782 182.718 143.582 182.936C142.407 183.138 141.171 183.092 139.874 182.798ZM149.414 184.578L162.081 165.078L164.786 165.691L167.774 188.74L165.069 188.127L164.364 182.214L155.305 180.161L152.089 185.184L149.414 184.578ZM156.534 178.266L164.072 179.975L162.688 168.603L156.534 178.266ZM174.412 190.245L171.242 167.155L174.008 167.782L176.515 187.878L187.504 170.842L190.21 171.455L177.391 190.921L174.412 190.245ZM188.302 193.395L193.127 172.117L195.68 172.696L190.856 193.973L188.302 193.395ZM195.367 194.996L200.192 173.718L202.745 174.297L210.217 193.921L214.083 176.868L216.636 177.447L211.812 198.725L209.259 198.146L201.787 178.523L197.921 195.575L195.367 194.996ZM225.391 202.187C223.365 201.728 221.708 200.862 220.419 199.59C219.156 198.302 218.295 196.743 217.836 194.913C217.402 193.068 217.427 191.081 217.909 188.953C218.387 186.846 219.219 185.053 220.407 183.575C221.594 182.097 223.066 181.057 224.822 180.453C226.583 179.83 228.557 179.766 230.746 180.262C233.137 180.804 234.992 181.832 236.311 183.346C237.65 184.864 238.323 186.689 238.329 188.821L235.381 188.152C235.386 186.811 234.937 185.644 234.033 184.651C233.149 183.662 231.877 182.98 230.215 182.603C228.533 182.222 227.027 182.285 225.698 182.793C224.368 183.301 223.26 184.147 222.374 185.331C221.512 186.5 220.895 187.904 220.523 189.546C220.146 191.208 220.103 192.764 220.392 194.214C220.681 195.665 221.297 196.891 222.242 197.893C223.187 198.896 224.439 199.574 225.999 199.928C228.269 200.442 230.131 200.172 231.584 199.117C233.043 198.041 234.115 196.367 234.801 194.093L227.141 192.357L227.596 190.35L237.87 192.68L235.292 204.048L232.952 203.518L233.531 199.974C232.481 201.035 231.323 201.774 230.057 202.19C228.791 202.606 227.235 202.605 225.391 202.187ZM246.026 206.865C244.587 206.539 243.34 205.979 242.284 205.186C241.248 204.397 240.498 203.428 240.035 202.279C239.596 201.114 239.539 199.812 239.865 198.374L242.54 198.98C242.219 200.399 242.43 201.629 243.174 202.671C243.922 203.693 245.036 204.372 246.515 204.707C247.812 205.001 248.957 204.931 249.951 204.495C250.965 204.065 251.603 203.272 251.864 202.117C252.044 201.326 252.044 200.666 251.866 200.136C251.713 199.59 251.397 199.103 250.919 198.674C250.445 198.226 249.825 197.766 249.059 197.294C248.292 196.822 247.385 196.265 246.338 195.622C245.407 195.028 244.63 194.415 244.006 193.783C243.403 193.157 242.984 192.465 242.751 191.709C242.522 190.933 242.515 190.068 242.731 189.116C242.996 187.855 243.519 186.865 244.299 186.148C245.105 185.414 246.065 184.939 247.179 184.723C248.318 184.491 249.506 184.516 250.742 184.796C251.998 185.081 253.07 185.569 253.957 186.26C254.87 186.936 255.529 187.788 255.934 188.818C256.345 189.827 256.418 190.962 256.153 192.223L253.478 191.616C253.722 190.542 253.536 189.574 252.923 188.71C252.313 187.826 251.391 187.244 250.154 186.964C249.069 186.675 248.075 186.737 247.172 187.15C246.269 187.564 245.688 188.338 245.431 189.472C245.261 190.222 245.277 190.854 245.48 191.369C245.708 191.868 246.17 192.367 246.867 192.866C247.563 193.365 248.538 194.001 249.79 194.775C250.689 195.32 251.482 195.862 252.17 196.401C252.861 196.92 253.416 197.483 253.832 198.089C254.254 198.674 254.53 199.333 254.662 200.066C254.799 200.779 254.759 201.612 254.543 202.564C254.254 203.841 253.674 204.849 252.803 205.589C251.957 206.314 250.934 206.785 249.734 207.003C248.559 207.205 247.323 207.159 246.026 206.865Z" fill="white"/>
</g>
<g clip-path="url(#clip3_142_3166)">
<rect width="366.466" height="67.0506" transform="translate(18.6768 113.259) rotate(-8.89056)" fill="#AC4185"/>
<path d="M123.825 141.372L120.453 119.816L133.571 117.764L133.903 119.889L123.372 121.537L124.509 128.804L133.47 127.402L133.797 129.496L124.836 130.898L126.411 140.967L123.825 141.372ZM140.274 138.799L136.902 117.243L139.489 116.839L142.861 138.394L140.274 138.799ZM147.431 137.679L144.059 116.124L146.646 115.719L160.835 131.198L158.132 113.922L160.719 113.518L164.091 135.073L161.504 135.478L147.316 119.999L150.018 137.275L147.431 137.679ZM167.307 134.57L171.88 111.772L174.621 111.343L185.907 131.661L183.166 132.089L180.328 126.855L171.152 128.29L170.017 134.146L167.307 134.57ZM171.594 126.076L179.231 124.881L173.746 114.824L171.594 126.076ZM189.111 131.159L185.739 109.604L188.326 109.199L202.514 124.678L199.812 107.402L202.399 106.998L205.771 128.553L203.184 128.958L188.996 113.479L191.698 130.755L189.111 131.159ZM219.854 126.729C217.678 127.07 215.744 126.878 214.054 126.154C212.36 125.409 210.981 124.258 209.917 122.7C208.853 121.141 208.156 119.305 207.825 117.191C207.497 115.097 207.592 113.147 208.109 111.341C208.646 109.533 209.607 108.015 210.993 106.789C212.378 105.563 214.17 104.778 216.366 104.434C218.83 104.049 220.924 104.331 222.65 105.281C224.394 106.207 225.646 107.694 226.408 109.741L223.544 110.189C223.007 108.906 222.163 107.944 221.011 107.304C219.877 106.64 218.447 106.443 216.723 106.713C215.019 106.98 213.665 107.602 212.661 108.579C211.654 109.536 210.967 110.726 210.601 112.15C210.256 113.571 210.213 115.113 210.473 116.776C210.74 118.48 211.265 119.954 212.048 121.199C212.852 122.44 213.88 123.363 215.131 123.966C216.379 124.549 217.834 124.71 219.497 124.45C221.222 124.181 222.526 123.577 223.41 122.64C224.311 121.678 224.823 120.515 224.946 119.15L227.81 118.702C227.703 120.843 226.961 122.62 225.584 124.035C224.227 125.446 222.317 126.344 219.854 126.729ZM232.505 124.371L229.133 102.816L231.72 102.411L235.092 123.967L232.505 124.371ZM238.308 123.464L242.881 100.665L245.621 100.237L256.907 120.554L254.166 120.983L251.329 115.748L242.152 117.184L241.017 123.04L238.308 123.464ZM242.594 114.97L250.231 113.775L244.746 103.718L242.594 114.97ZM260.112 120.053L256.74 98.4974L259.326 98.0928L262.376 117.585L272.414 116.015L272.737 118.078L260.112 120.053ZM282.283 116.963C280.825 117.191 279.46 117.132 278.185 116.784C276.932 116.434 275.877 115.81 275.022 114.913C274.184 113.993 273.651 112.804 273.423 111.346L276.133 110.922C276.357 112.359 277.008 113.425 278.084 114.119C279.157 114.792 280.442 115.012 281.941 114.777C283.255 114.572 284.293 114.083 285.056 113.312C285.839 112.537 286.139 111.565 285.956 110.395C285.831 109.594 285.588 108.98 285.226 108.553C284.882 108.102 284.409 107.766 283.807 107.545C283.201 107.303 282.455 107.104 281.568 106.949C280.682 106.793 279.633 106.61 278.422 106.4C277.338 106.191 276.389 105.908 275.576 105.551C274.784 105.192 274.14 104.703 273.644 104.087C273.145 103.45 272.82 102.649 272.669 101.684C272.449 100.415 272.569 99.3021 273.03 98.3468C273.508 97.3677 274.224 96.572 275.18 95.9598C276.153 95.3239 277.266 94.9079 278.518 94.7121C279.791 94.513 280.967 94.5708 282.047 94.8856C283.144 95.1767 284.072 95.7257 284.829 96.5327C285.583 97.3191 286.069 98.3471 286.289 99.6167L283.579 100.041C283.409 98.9525 282.879 98.1205 281.99 97.5446C281.097 96.9481 280.025 96.7478 278.773 96.9437C277.658 97.076 276.757 97.5009 276.07 98.2183C275.383 98.9356 275.129 99.8692 275.309 101.019C275.428 101.778 275.677 102.36 276.055 102.763C276.451 103.143 277.065 103.436 277.896 103.643C278.728 103.849 279.868 104.081 281.318 104.338C282.354 104.512 283.292 104.723 284.13 104.971C284.964 105.198 285.687 105.516 286.298 105.925C286.906 106.313 287.406 106.824 287.799 107.457C288.19 108.069 288.46 108.857 288.611 109.822C288.813 111.115 288.646 112.266 288.11 113.276C287.591 114.261 286.815 115.077 285.78 115.722C284.763 116.344 283.597 116.758 282.283 116.963Z" fill="white"/>
</g>
<g clip-path="url(#clip4_142_3166)">
<rect width="379.671" height="67.0506" transform="translate(28.3555 251.395) rotate(7.34963)" fill="#AC4185"/>
<path d="M121.547 307.806L124.338 286.167L126.934 286.502L124.143 308.141L121.547 307.806ZM128.731 308.732L131.522 287.094L134.119 287.429L143.412 306.258L145.649 288.916L148.246 289.251L145.455 310.889L142.858 310.554L133.565 291.725L131.328 309.067L128.731 308.732ZM156.566 312.323L151.227 289.635L154.04 289.998L158.436 309.767L167.765 291.768L170.517 292.123L159.596 312.713L156.566 312.323ZM170.692 314.145L173.483 292.506L186.868 294.232L186.593 296.365L175.805 294.974L174.9 301.991L184.328 303.207L184.057 305.309L174.629 304.093L173.564 312.347L184.352 313.738L184.077 315.871L170.692 314.145ZM194.986 317.655C193.523 317.467 192.228 317.027 191.102 316.337C189.997 315.65 189.159 314.756 188.588 313.656C188.041 312.538 187.862 311.247 188.051 309.784L190.771 310.135C190.585 311.577 190.911 312.782 191.75 313.749C192.592 314.696 193.765 315.266 195.269 315.46C196.588 315.631 197.722 315.452 198.67 314.925C199.638 314.4 200.198 313.551 200.35 312.376C200.453 311.572 200.392 310.915 200.164 310.404C199.96 309.874 199.6 309.419 199.083 309.039C198.569 308.637 197.909 308.238 197.101 307.84C196.293 307.443 195.337 306.974 194.234 306.433C193.251 305.929 192.42 305.393 191.739 304.823C191.079 304.256 190.597 303.607 190.293 302.876C189.992 302.125 189.904 301.265 190.029 300.297C190.173 299.016 190.6 297.982 191.309 297.194C192.041 296.387 192.952 295.824 194.041 295.503C195.153 295.165 196.338 295.077 197.595 295.239C198.873 295.404 199.986 295.788 200.934 296.392C201.906 296.979 202.643 297.765 203.144 298.752C203.648 299.717 203.828 300.841 203.684 302.121L200.964 301.77C201.104 300.678 200.828 299.731 200.136 298.929C199.446 298.107 198.472 297.615 197.215 297.453C196.107 297.268 195.124 297.424 194.263 297.92C193.403 298.417 192.899 299.242 192.75 300.396C192.651 301.159 192.728 301.787 192.978 302.28C193.252 302.755 193.759 303.208 194.5 303.639C195.241 304.07 196.271 304.611 197.59 305.263C198.537 305.721 199.378 306.185 200.113 306.657C200.851 307.109 201.456 307.616 201.928 308.18C202.403 308.723 202.741 309.353 202.941 310.07C203.145 310.767 203.184 311.6 203.059 312.568C202.892 313.867 202.409 314.925 201.612 315.744C200.839 316.545 199.865 317.111 198.691 317.442C197.54 317.754 196.305 317.825 194.986 317.655ZM210.568 319.288L213.084 299.782L206.624 298.949L206.899 296.816L222.417 298.818L222.141 300.951L215.681 300.117L213.165 319.623L210.568 319.288ZM222.796 320.865L225.587 299.227L228.617 299.617L234.16 315.606L243.516 301.539L246.577 301.934L243.786 323.572L241.189 323.238L243.374 306.298L234.663 319.253L232.716 319.002L227.574 304.291L225.393 321.2L222.796 320.865ZM248.365 324.163L251.156 302.525L264.541 304.251L264.266 306.384L253.478 304.992L252.573 312.009L262.001 313.226L261.73 315.328L252.302 314.112L251.237 322.365L262.025 323.757L261.75 325.89L248.365 324.163ZM265.814 326.414L268.605 304.775L271.201 305.11L280.495 323.939L282.732 306.597L285.328 306.932L282.537 328.571L279.941 328.236L270.647 309.407L268.41 326.749L265.814 326.414ZM292.196 329.817L294.712 310.311L288.251 309.478L288.526 307.345L304.044 309.346L303.769 311.479L297.309 310.646L294.793 330.151L292.196 329.817Z" fill="white"/>
</g>
<rect width="334.554" height="67.0506" transform="translate(37.1582 384.545) rotate(7.34963)" fill="#AC4185"/>
<path d="M137.137 442.208C135.674 442.019 134.379 441.58 133.253 440.89C132.148 440.202 131.31 439.309 130.739 438.208C130.192 437.09 130.013 435.8 130.202 434.336L132.922 434.687C132.736 436.13 133.062 437.335 133.901 438.302C134.743 439.249 135.916 439.819 137.42 440.013C138.739 440.183 139.873 440.005 140.821 439.477C141.789 438.953 142.349 438.103 142.501 436.929C142.604 436.125 142.543 435.467 142.315 434.956C142.111 434.427 141.751 433.972 141.234 433.591C140.72 433.19 140.059 432.79 139.252 432.393C138.444 431.995 137.488 431.526 136.385 430.986C135.402 430.482 134.571 429.945 133.89 429.375C133.23 428.808 132.748 428.16 132.444 427.429C132.143 426.678 132.055 425.818 132.179 424.849C132.324 423.569 132.75 422.535 133.46 421.746C134.192 420.94 135.103 420.376 136.192 420.056C137.304 419.717 138.489 419.629 139.746 419.791C141.023 419.956 142.137 420.341 143.085 420.945C144.057 421.531 144.794 422.318 145.295 423.304C145.799 424.27 145.979 425.393 145.835 426.674L143.114 426.323C143.255 425.23 142.979 424.283 142.287 423.482C141.597 422.659 140.623 422.167 139.366 422.005C138.258 421.82 137.275 421.976 136.414 422.473C135.554 422.97 135.05 423.795 134.901 424.949C134.802 425.711 134.879 426.339 135.129 426.833C135.403 427.308 135.91 427.761 136.651 428.192C137.392 428.622 138.422 429.164 139.741 429.816C140.688 430.273 141.529 430.738 142.264 431.21C143.002 431.661 143.607 432.169 144.079 432.732C144.554 433.275 144.891 433.906 145.092 434.623C145.296 435.32 145.335 436.152 145.21 437.121C145.043 438.419 144.56 439.478 143.763 440.297C142.99 441.098 142.016 441.664 140.842 441.994C139.691 442.307 138.456 442.378 137.137 442.208ZM148.163 443.253L150.954 421.614L164.339 423.341L164.064 425.474L153.275 424.082L152.37 431.099L161.798 432.315L161.527 434.417L152.099 433.201L151.035 441.455L161.823 442.846L161.548 444.979L148.163 443.253ZM165.611 445.503L168.402 423.865L174.801 424.69C176.326 424.887 177.595 425.281 178.608 425.873C179.624 426.444 180.363 427.209 180.826 428.17C181.289 429.13 181.433 430.291 181.257 431.651C181.039 433.341 180.431 434.561 179.434 435.313C178.456 436.067 177.198 436.48 175.659 436.554L180.573 447.433L177.358 447.018L173.03 436.718L169.444 436.255L168.208 445.838L165.611 445.503ZM169.727 434.061L173.467 434.543C174.621 434.692 175.556 434.676 176.27 434.496C176.988 434.295 177.528 433.925 177.891 433.385C178.254 432.845 178.49 432.153 178.599 431.308C178.71 430.443 178.659 429.703 178.445 429.088C178.231 428.474 177.801 427.989 177.156 427.634C176.513 427.257 175.614 426.995 174.46 426.846L170.72 426.364L169.727 434.061ZM189.522 448.587L184.183 425.9L186.996 426.263L191.392 446.032L200.721 428.033L203.472 428.388L192.551 448.978L189.522 448.587ZM203.648 450.409L206.439 428.771L209.036 429.106L206.245 450.744L203.648 450.409ZM220.275 452.931C218.09 452.649 216.288 451.925 214.867 450.757C213.449 449.568 212.447 448.077 211.861 446.283C211.276 444.49 211.12 442.532 211.393 440.409C211.665 438.307 212.301 436.462 213.302 434.873C214.323 433.287 215.671 432.099 217.344 431.309C219.017 430.519 220.956 430.266 223.162 430.551C225.634 430.87 227.567 431.726 228.958 433.121C230.373 434.498 231.16 436.275 231.319 438.454L228.444 438.083C228.287 436.701 227.745 435.542 226.818 434.605C225.915 433.65 224.598 433.061 222.866 432.838C221.156 432.618 219.682 432.836 218.445 433.494C217.211 434.13 216.218 435.081 215.469 436.347C214.739 437.614 214.267 439.083 214.052 440.752C213.831 442.463 213.923 444.025 214.327 445.439C214.752 446.855 215.481 448.028 216.513 448.958C217.548 449.866 218.901 450.428 220.57 450.644C222.301 450.867 223.722 450.652 224.833 449.999C225.967 449.328 226.784 448.355 227.284 447.078L230.158 447.449C229.457 449.475 228.248 450.974 226.53 451.947C224.833 452.922 222.748 453.25 220.275 452.931ZM233.081 454.206L235.872 432.567L249.257 434.294L248.982 436.427L238.193 435.035L237.288 442.052L246.717 443.268L246.446 445.37L237.017 444.154L235.953 452.408L246.741 453.799L246.466 455.932L233.081 454.206ZM257.375 457.716C255.912 457.528 254.617 457.088 253.491 456.398C252.386 455.711 251.548 454.817 250.977 453.717C250.43 452.599 250.251 451.308 250.439 449.845L253.16 450.196C252.974 451.639 253.3 452.844 254.139 453.811C254.981 454.757 256.154 455.328 257.658 455.522C258.977 455.692 260.111 455.513 261.058 454.986C262.027 454.462 262.587 453.612 262.739 452.437C262.842 451.634 262.78 450.976 262.553 450.465C262.349 449.936 261.989 449.481 261.472 449.1C260.958 448.698 260.297 448.299 259.49 447.901C258.682 447.504 257.726 447.035 256.623 446.494C255.64 445.991 254.808 445.454 254.128 444.884C253.468 444.317 252.986 443.668 252.682 442.938C252.381 442.187 252.292 441.327 252.417 440.358C252.562 439.078 252.988 438.043 253.698 437.255C254.43 436.448 255.341 435.885 256.43 435.565C257.542 435.226 258.726 435.138 259.984 435.3C261.261 435.465 262.374 435.849 263.323 436.454C264.295 437.04 265.032 437.826 265.533 438.813C266.037 439.779 266.217 440.902 266.073 442.182L263.352 441.831C263.493 440.739 263.217 439.792 262.525 438.99C261.834 438.168 260.861 437.676 259.604 437.514C258.496 437.329 257.512 437.485 256.652 437.982C255.792 438.478 255.287 439.304 255.139 440.458C255.04 441.22 255.116 441.848 255.367 442.341C255.641 442.817 256.148 443.27 256.889 443.7C257.629 444.131 258.659 444.673 259.979 445.325C260.926 445.782 261.767 446.247 262.502 446.719C263.24 447.17 263.845 447.677 264.317 448.241C264.792 448.784 265.129 449.414 265.33 450.132C265.534 450.828 265.573 451.661 265.448 452.63C265.28 453.928 264.798 454.987 264.001 455.806C263.227 456.607 262.254 457.172 261.08 457.503C259.929 457.815 258.694 457.887 257.375 457.716Z" fill="white"/>
<rect width="424.788" height="67.0506" transform="translate(0 468.949)" fill="#42032B"/>
<path d="M109.269 513.349C107.066 513.349 105.186 512.86 103.627 511.884C102.069 510.886 100.884 509.536 100.074 507.832C99.2637 506.128 98.8585 504.206 98.8585 502.066C98.8585 499.946 99.2533 498.035 100.043 496.331C100.853 494.627 102.038 493.276 103.596 492.279C105.154 491.282 107.045 490.783 109.269 490.783C111.762 490.783 113.788 491.385 115.347 492.591C116.926 493.775 117.933 495.437 118.37 497.578H115.471C115.139 496.227 114.453 495.146 113.414 494.336C112.396 493.505 111.014 493.089 109.269 493.089C107.544 493.089 106.11 493.495 104.967 494.305C103.825 495.094 102.962 496.165 102.38 497.515C101.819 498.866 101.539 500.383 101.539 502.066C101.539 503.79 101.83 505.328 102.412 506.679C103.014 508.029 103.887 509.099 105.03 509.889C106.173 510.658 107.586 511.042 109.269 511.042C111.014 511.042 112.396 510.647 113.414 509.858C114.453 509.048 115.139 507.977 115.471 506.648H118.37C117.933 508.746 116.926 510.388 115.347 511.572C113.788 512.757 111.762 513.349 109.269 513.349ZM122.133 512.975V491.157H128.585C130.122 491.157 131.431 491.385 132.512 491.843C133.592 492.279 134.423 492.944 135.005 493.837C135.587 494.731 135.878 495.863 135.878 497.235C135.878 498.939 135.431 500.227 134.538 501.1C133.665 501.972 132.47 502.544 130.953 502.814L137.218 512.975H133.977L128.366 503.313H124.751V512.975H122.133ZM124.751 501.1H128.522C129.686 501.1 130.61 500.965 131.296 500.694C131.982 500.403 132.47 499.967 132.761 499.385C133.052 498.804 133.197 498.087 133.197 497.235C133.197 496.362 133.052 495.635 132.761 495.053C132.47 494.471 131.982 494.045 131.296 493.775C130.61 493.484 129.686 493.339 128.522 493.339H124.751V501.1ZM145.088 512.975V504.684L137.982 491.157H140.943L146.397 502.19L151.852 491.157H154.782L147.706 504.684V512.975H145.088ZM163.417 513.349C161.942 513.349 160.602 513.079 159.396 512.538C158.212 511.998 157.267 511.219 156.56 510.201C155.874 509.162 155.532 507.905 155.532 506.429H158.274C158.274 507.884 158.752 509.037 159.708 509.889C160.664 510.72 161.9 511.136 163.417 511.136C164.747 511.136 165.848 510.814 166.721 510.17C167.614 509.525 168.061 508.611 168.061 507.427C168.061 506.616 167.916 505.972 167.625 505.494C167.355 504.996 166.939 504.59 166.378 504.279C165.817 503.946 165.111 503.635 164.259 503.344C163.407 503.053 162.399 502.71 161.235 502.315C160.196 501.941 159.303 501.515 158.555 501.037C157.828 500.559 157.267 499.978 156.872 499.292C156.477 498.585 156.28 497.744 156.28 496.767C156.259 495.479 156.55 494.398 157.152 493.526C157.776 492.632 158.607 491.957 159.646 491.5C160.705 491.022 161.869 490.783 163.137 490.783C164.425 490.783 165.578 491.022 166.596 491.5C167.635 491.957 168.466 492.643 169.09 493.557C169.713 494.45 170.035 495.541 170.056 496.83H167.313C167.313 495.728 166.918 494.824 166.129 494.118C165.339 493.391 164.311 493.027 163.043 493.027C161.921 492.985 160.965 493.266 160.176 493.869C159.386 494.471 158.991 495.354 158.991 496.518C158.991 497.287 159.147 497.9 159.459 498.357C159.791 498.793 160.352 499.178 161.142 499.51C161.931 499.842 163.022 500.248 164.415 500.726C165.412 501.058 166.305 501.411 167.095 501.785C167.885 502.139 168.55 502.565 169.09 503.063C169.63 503.541 170.046 504.123 170.337 504.809C170.627 505.474 170.773 506.294 170.773 507.271C170.773 508.58 170.43 509.692 169.744 510.606C169.079 511.499 168.186 512.185 167.064 512.663C165.963 513.12 164.747 513.349 163.417 513.349ZM179.08 512.975V493.307H172.566V491.157H188.212V493.307H181.698V512.975H179.08ZM187.572 512.975L195.614 491.157H198.388L206.398 512.975H203.624L201.629 507.364H192.341L190.315 512.975H187.572ZM193.12 505.245H200.85L196.985 494.461L193.12 505.245ZM209.642 512.975V491.157H212.26V510.886H222.421V512.975H209.642ZM226.017 512.975V491.157H233.529C235.586 491.157 237.207 491.656 238.391 492.653C239.596 493.63 240.199 494.907 240.199 496.487C240.199 497.692 239.866 498.71 239.201 499.541C238.557 500.372 237.768 500.933 236.832 501.224C237.788 501.515 238.588 501.931 239.232 502.471C239.877 503.011 240.365 503.645 240.697 504.372C241.03 505.079 241.196 505.879 241.196 506.772C241.196 507.977 240.947 509.048 240.448 509.983C239.949 510.918 239.181 511.655 238.142 512.196C237.123 512.715 235.825 512.975 234.246 512.975H226.017ZM228.635 510.793H233.435C235.035 510.793 236.282 510.46 237.175 509.796C238.09 509.131 238.547 508.071 238.547 506.616C238.547 505.141 238.058 504.071 237.082 503.406C236.105 502.741 234.869 502.409 233.373 502.409H228.635V510.793ZM228.635 500.32H233.342C234.692 500.32 235.731 500.009 236.458 499.385C237.186 498.741 237.549 497.889 237.549 496.83C237.549 495.728 237.186 494.876 236.458 494.274C235.731 493.65 234.661 493.339 233.248 493.339H228.635V500.32ZM244.767 512.975V491.157H251.219C252.756 491.157 254.065 491.385 255.146 491.843C256.226 492.279 257.057 492.944 257.639 493.837C258.221 494.731 258.512 495.863 258.512 497.235C258.512 498.939 258.065 500.227 257.172 501.1C256.299 501.972 255.104 502.544 253.587 502.814L259.852 512.975H256.611L251 503.313H247.385V512.975H244.767ZM247.385 501.1H251.156C252.32 501.1 253.245 500.965 253.93 500.694C254.616 500.403 255.104 499.967 255.395 499.385C255.686 498.804 255.832 498.087 255.832 497.235C255.832 496.362 255.686 495.635 255.395 495.053C255.104 494.471 254.616 494.045 253.93 493.775C253.245 493.484 252.32 493.339 251.156 493.339H247.385V501.1ZM263.243 512.975V491.157H265.861V512.975H263.243ZM280.055 513.349C277.853 513.349 275.972 512.86 274.414 511.884C272.856 510.886 271.671 509.536 270.861 507.832C270.05 506.128 269.645 504.206 269.645 502.066C269.645 499.946 270.04 498.035 270.83 496.331C271.64 494.627 272.824 493.276 274.383 492.279C275.941 491.282 277.832 490.783 280.055 490.783C282.549 490.783 284.575 491.385 286.133 492.591C287.712 493.775 288.72 495.437 289.157 497.578H286.258C285.925 496.227 285.24 495.146 284.201 494.336C283.183 493.505 281.801 493.089 280.055 493.089C278.331 493.089 276.897 493.495 275.754 494.305C274.611 495.094 273.749 496.165 273.167 497.515C272.606 498.866 272.326 500.383 272.326 502.066C272.326 503.79 272.617 505.328 273.198 506.679C273.801 508.029 274.674 509.099 275.817 509.889C276.959 510.658 278.372 511.042 280.055 511.042C281.801 511.042 283.183 510.647 284.201 509.858C285.24 509.048 285.925 507.977 286.258 506.648H289.157C288.72 508.746 287.712 510.388 286.133 511.572C284.575 512.757 282.549 513.349 280.055 513.349ZM307.506 491.157L299.839 499.385L308.348 512.975H305.169L297.969 501.411L295.538 503.998V512.975H292.919V491.157H295.538V500.57L304.202 491.157H307.506ZM318.011 513.349C316.536 513.349 315.195 513.079 313.99 512.538C312.806 511.998 311.86 511.219 311.154 510.201C310.468 509.162 310.125 507.905 310.125 506.429H312.868C312.868 507.884 313.346 509.037 314.302 509.889C315.258 510.72 316.494 511.136 318.011 511.136C319.341 511.136 320.442 510.814 321.315 510.17C322.208 509.525 322.655 508.611 322.655 507.427C322.655 506.616 322.51 505.972 322.219 505.494C321.949 504.996 321.533 504.59 320.972 504.279C320.411 503.946 319.704 503.635 318.852 503.344C318.001 503.053 316.993 502.71 315.829 502.315C314.79 501.941 313.897 501.515 313.149 501.037C312.421 500.559 311.86 499.978 311.466 499.292C311.071 498.585 310.873 497.744 310.873 496.767C310.853 495.479 311.144 494.398 311.746 493.526C312.369 492.632 313.201 491.957 314.24 491.5C315.299 491.022 316.463 490.783 317.73 490.783C319.019 490.783 320.172 491.022 321.19 491.5C322.229 491.957 323.06 492.643 323.684 493.557C324.307 494.45 324.629 495.541 324.65 496.83H321.907C321.907 495.728 321.512 494.824 320.723 494.118C319.933 493.391 318.904 493.027 317.637 493.027C316.515 492.985 315.559 493.266 314.769 493.869C313.98 494.471 313.585 495.354 313.585 496.518C313.585 497.287 313.741 497.9 314.053 498.357C314.385 498.793 314.946 499.178 315.736 499.51C316.525 499.842 317.616 500.248 319.008 500.726C320.006 501.058 320.899 501.411 321.689 501.785C322.478 502.139 323.143 502.565 323.684 503.063C324.224 503.541 324.639 504.123 324.93 504.809C325.221 505.474 325.367 506.294 325.367 507.271C325.367 508.58 325.024 509.692 324.338 510.606C323.673 511.499 322.78 512.185 321.658 512.663C320.556 513.12 319.341 513.349 318.011 513.349Z" fill="white"/>
<defs>
<clipPath id="clip0_142_3166">
<rect width="322.45" height="67.0506" fill="white" transform="translate(28.5811 367.325) rotate(-8.70552)"/>
</clipPath>
<clipPath id="clip1_142_3166">
<rect width="292.739" height="67.0506" fill="white" transform="translate(28.5811 243.112) rotate(-12.4765)"/>
</clipPath>
<clipPath id="clip2_142_3166">
<rect width="344.458" height="67.0506" fill="white" transform="translate(34.626 113.41) rotate(12.7743)"/>
</clipPath>
<clipPath id="clip3_142_3166">
<rect width="366.466" height="67.0506" fill="white" transform="translate(18.6768 113.259) rotate(-8.89056)"/>
</clipPath>
<clipPath id="clip4_142_3166">
<rect width="379.671" height="67.0506" fill="white" transform="translate(28.3555 251.395) rotate(7.34963)"/>
</clipPath>
</defs>
</svg>
