<svg width="555" height="530" viewBox="0 0 555 530" fill="none" xmlns="http://www.w3.org/2000/svg">
<g filter="url(#filter0_d_293_3683)">
<mask id="path-1-outside-1_293_3683" maskUnits="userSpaceOnUse" x="7.24161" y="36.1052" width="405.964" height="224.304" fill="black">
<rect fill="white" x="7.24161" y="36.1052" width="405.964" height="224.304"/>
<path d="M41.2558 248.144L17.3292 112.573L66.716 103.857C82.9846 100.986 96.743 101.62 107.991 105.759C119.346 109.746 128.312 116.418 134.89 125.775C141.444 135.003 145.872 146.137 148.174 159.178C150.794 174.026 150.164 187.052 146.283 198.255C142.509 209.305 135.848 218.336 126.301 225.346C116.861 232.205 104.974 236.899 90.6426 239.428L41.2558 248.144ZM67.1735 216.211L84.4104 213.168C94.9979 211.3 102.825 208.121 107.89 203.632C113.085 199.121 116.233 193.573 117.335 186.988C118.565 180.38 118.451 172.944 116.992 164.681C114.418 150.091 109.203 140.16 101.35 134.89C93.6029 129.467 83.0799 127.929 69.781 130.276L52.5441 133.318L67.1735 216.211ZM174.596 224.612L150.669 89.0402L239.759 73.317L244.407 99.6566L185.918 109.979L190.259 134.576L239.646 125.86L244.294 152.199L194.908 160.915L200.547 192.871L259.037 182.549L263.685 208.888L174.596 224.612ZM340.645 197.703C326.571 200.186 314.04 199.336 303.049 195.151C292.036 190.837 282.96 183.918 275.821 174.394C268.81 164.847 264.109 153.295 261.716 139.738C259.324 126.181 259.711 113.664 262.878 102.188C266.151 90.5602 272.223 80.8346 281.094 73.0116C289.965 65.1885 301.566 60.0123 315.898 57.4829C332.683 54.5206 347.25 56.3432 359.6 62.9507C371.927 69.4291 380.684 80.1987 385.872 95.2597L352.366 101.173C349.913 94.8159 345.85 90.2741 340.176 87.5476C334.632 84.7983 327.986 84.1072 320.239 85.4745C313.525 86.6594 307.806 89.3329 303.082 93.4951C298.335 97.5282 295.035 102.97 293.182 109.821C291.306 116.543 291.211 124.681 292.898 134.235C294.538 143.532 297.337 151.092 301.294 156.918C305.358 162.591 310.321 166.575 316.185 168.868C322.025 171.033 328.367 171.511 335.21 170.303C342.957 168.936 348.999 166.206 353.336 162.112C357.779 157.866 360.11 152.595 360.331 146.299L393.836 140.386C393.935 155.28 389.291 167.815 379.904 177.993C370.516 188.17 357.43 194.74 340.645 197.703Z"/>
</mask>
<path d="M41.2558 248.144L17.3292 112.573L66.716 103.857C82.9846 100.986 96.743 101.62 107.991 105.759C119.346 109.746 128.312 116.418 134.89 125.775C141.444 135.003 145.872 146.137 148.174 159.178C150.794 174.026 150.164 187.052 146.283 198.255C142.509 209.305 135.848 218.336 126.301 225.346C116.861 232.205 104.974 236.899 90.6426 239.428L41.2558 248.144ZM67.1735 216.211L84.4104 213.168C94.9979 211.3 102.825 208.121 107.89 203.632C113.085 199.121 116.233 193.573 117.335 186.988C118.565 180.38 118.451 172.944 116.992 164.681C114.418 150.091 109.203 140.16 101.35 134.89C93.6029 129.467 83.0799 127.929 69.781 130.276L52.5441 133.318L67.1735 216.211ZM174.596 224.612L150.669 89.0402L239.759 73.317L244.407 99.6566L185.918 109.979L190.259 134.576L239.646 125.86L244.294 152.199L194.908 160.915L200.547 192.871L259.037 182.549L263.685 208.888L174.596 224.612ZM340.645 197.703C326.571 200.186 314.04 199.336 303.049 195.151C292.036 190.837 282.96 183.918 275.821 174.394C268.81 164.847 264.109 153.295 261.716 139.738C259.324 126.181 259.711 113.664 262.878 102.188C266.151 90.5602 272.223 80.8346 281.094 73.0116C289.965 65.1885 301.566 60.0123 315.898 57.4829C332.683 54.5206 347.25 56.3432 359.6 62.9507C371.927 69.4291 380.684 80.1987 385.872 95.2597L352.366 101.173C349.913 94.8159 345.85 90.2741 340.176 87.5476C334.632 84.7983 327.986 84.1072 320.239 85.4745C313.525 86.6594 307.806 89.3329 303.082 93.4951C298.335 97.5282 295.035 102.97 293.182 109.821C291.306 116.543 291.211 124.681 292.898 134.235C294.538 143.532 297.337 151.092 301.294 156.918C305.358 162.591 310.321 166.575 316.185 168.868C322.025 171.033 328.367 171.511 335.21 170.303C342.957 168.936 348.999 166.206 353.336 162.112C357.779 157.866 360.11 152.595 360.331 146.299L393.836 140.386C393.935 155.28 389.291 167.815 379.904 177.993C370.516 188.17 357.43 194.74 340.645 197.703Z" fill="#AC4185"/>
<path d="M41.2558 248.144L33.3776 249.535L34.768 257.413L42.6462 256.023L41.2558 248.144ZM17.3292 112.573L15.9388 104.695L8.06058 106.085L9.45098 113.963L17.3292 112.573ZM107.991 105.759L105.229 113.266L105.285 113.287L105.341 113.307L107.991 105.759ZM134.89 125.775L128.345 130.376L128.356 130.392L128.368 130.408L134.89 125.775ZM146.283 198.255L138.724 195.636L138.718 195.652L138.713 195.669L146.283 198.255ZM126.301 225.346L131.003 231.819L131.02 231.807L131.036 231.795L126.301 225.346ZM67.1735 216.211L59.2952 217.601L60.6856 225.479L68.5639 224.089L67.1735 216.211ZM107.89 203.632L102.645 197.592L102.615 197.618L102.585 197.645L107.89 203.632ZM117.335 186.988L109.47 185.523L109.456 185.596L109.444 185.668L117.335 186.988ZM101.35 134.89L96.7624 141.444L96.8266 141.489L96.8917 141.532L101.35 134.89ZM52.5441 133.318L51.1537 125.44L43.2754 126.83L44.6658 134.709L52.5441 133.318ZM49.1341 246.754L25.2075 111.182L9.45098 113.963L33.3776 249.535L49.1341 246.754ZM18.7196 120.451L68.1064 111.735L65.3256 95.9785L15.9388 104.695L18.7196 120.451ZM68.1064 111.735C83.486 109.021 95.717 109.766 105.229 113.266L110.754 98.2508C97.769 93.4726 82.4831 92.9504 65.3256 95.9785L68.1064 111.735ZM105.341 113.307C115.209 116.772 122.778 122.457 128.345 130.376L141.434 121.174C133.846 110.379 123.483 102.72 110.642 98.2105L105.341 113.307ZM128.368 130.408C134.128 138.518 138.165 148.498 140.296 160.568L156.052 157.787C153.579 143.776 148.76 131.488 141.412 121.142L128.368 130.408ZM140.296 160.568C142.742 174.432 142.054 186.024 138.724 195.636L153.843 200.873C158.275 188.079 158.846 173.62 156.052 157.787L140.296 160.568ZM138.713 195.669C135.475 205.149 129.816 212.841 121.566 218.898L131.036 231.795C141.881 223.832 149.543 213.462 153.854 200.84L138.713 195.669ZM121.599 218.874C113.354 224.864 102.676 229.181 89.2522 231.55L92.033 247.306C107.273 244.617 120.367 239.546 131.003 231.819L121.599 218.874ZM89.2522 231.55L39.8654 240.266L42.6462 256.023L92.033 247.306L89.2522 231.55ZM68.5639 224.089L85.8008 221.047L83.02 205.29L65.7831 208.332L68.5639 224.089ZM85.8008 221.047C97.0643 219.059 106.554 215.506 113.196 209.62L102.585 197.645C99.0956 200.737 92.9315 203.541 83.02 205.29L85.8008 221.047ZM113.136 209.673C119.687 203.983 123.807 196.785 125.225 188.307L109.444 185.668C108.66 190.36 106.483 194.259 102.645 197.592L113.136 209.673ZM125.199 188.452C126.643 180.7 126.456 172.273 124.871 163.291L109.114 166.071C110.446 173.616 110.487 180.06 109.47 185.523L125.199 188.452ZM124.871 163.291C122.127 147.743 116.27 135.268 105.808 128.247L96.8917 141.532C102.137 145.053 106.708 152.439 109.114 166.071L124.871 163.291ZM105.938 128.336C95.824 121.256 82.878 119.841 68.3906 122.398L71.1714 138.154C83.2819 136.017 91.3818 137.677 96.7624 141.444L105.938 128.336ZM68.3906 122.398L51.1537 125.44L53.9345 141.196L71.1714 138.154L68.3906 122.398ZM44.6658 134.709L59.2952 217.601L75.0517 214.82L60.4223 131.928L44.6658 134.709ZM174.596 224.612L166.717 226.002L168.108 233.88L175.986 232.49L174.596 224.612ZM150.669 89.0402L149.279 81.1619L141.4 82.5523L142.791 90.4306L150.669 89.0402ZM239.759 73.317L247.637 71.9266L246.247 64.0483L238.368 65.4387L239.759 73.317ZM244.407 99.6566L245.798 107.535L253.676 106.144L252.286 98.2662L244.407 99.6566ZM185.918 109.979L184.528 102.101L176.649 103.491L178.04 111.37L185.918 109.979ZM190.259 134.576L182.381 135.966L183.771 143.844L191.649 142.454L190.259 134.576ZM239.646 125.86L247.524 124.469L246.134 116.591L238.255 117.981L239.646 125.86ZM244.294 152.199L245.685 160.077L253.563 158.687L252.173 150.809L244.294 152.199ZM194.908 160.915L193.517 153.037L185.639 154.427L187.029 162.306L194.908 160.915ZM200.547 192.871L192.669 194.262L194.06 202.14L201.938 200.75L200.547 192.871ZM259.037 182.549L266.915 181.158L265.525 173.28L257.646 174.671L259.037 182.549ZM263.685 208.888L265.076 216.767L272.954 215.376L271.564 207.498L263.685 208.888ZM182.474 223.221L158.547 87.6498L142.791 90.4306L166.717 226.002L182.474 223.221ZM152.059 96.9184L241.149 81.1952L238.368 65.4387L149.279 81.1619L152.059 96.9184ZM231.881 74.7074L236.529 101.047L252.286 98.2662L247.637 71.9266L231.881 74.7074ZM243.017 91.7783L184.528 102.101L187.308 117.857L245.798 107.535L243.017 91.7783ZM178.04 111.37L182.381 135.966L198.137 133.185L193.796 108.589L178.04 111.37ZM191.649 142.454L241.036 133.738L238.255 117.981L188.869 126.697L191.649 142.454ZM231.767 127.25L236.416 153.59L252.173 150.809L247.524 124.469L231.767 127.25ZM242.904 144.321L193.517 153.037L196.298 168.794L245.685 160.077L242.904 144.321ZM187.029 162.306L192.669 194.262L208.426 191.481L202.786 159.525L187.029 162.306ZM201.938 200.75L260.427 190.427L257.646 174.671L199.157 184.993L201.938 200.75ZM251.159 183.939L255.807 210.279L271.564 207.498L266.915 181.158L251.159 183.939ZM262.295 201.01L173.205 216.733L175.986 232.49L265.076 216.767L262.295 201.01ZM303.049 195.151L300.132 202.6L300.167 202.614L300.203 202.628L303.049 195.151ZM275.821 174.394L269.373 179.129L269.396 179.161L269.42 179.193L275.821 174.394ZM262.878 102.188L255.177 100.021L255.171 100.04L255.166 100.06L262.878 102.188ZM359.6 62.9507L355.826 70.0045L355.852 70.0185L355.878 70.0322L359.6 62.9507ZM385.872 95.2597L387.262 103.138L396.486 101.51L393.436 92.6543L385.872 95.2597ZM352.366 101.173L344.903 104.053L347.273 110.195L353.757 109.051L352.366 101.173ZM340.176 87.5476L336.622 94.7148L336.666 94.7368L336.711 94.7582L340.176 87.5476ZM303.082 93.4951L308.262 99.5917L308.317 99.5452L308.371 99.4977L303.082 93.4951ZM293.182 109.821L300.888 111.971L300.896 111.941L300.905 111.91L293.182 109.821ZM301.294 156.918L294.677 161.413L294.733 161.495L294.79 161.576L301.294 156.918ZM316.185 168.868L313.27 176.319L313.337 176.345L313.405 176.37L316.185 168.868ZM353.336 162.112L358.827 167.929L358.845 167.913L358.863 167.896L353.336 162.112ZM360.331 146.299L358.94 138.421L352.562 139.546L352.335 146.019L360.331 146.299ZM393.836 140.386L401.836 140.332L401.773 130.861L392.446 132.507L393.836 140.386ZM379.904 177.993L385.784 183.417L379.904 177.993ZM339.255 189.824C326.297 192.111 315.272 191.245 305.896 187.675L300.203 202.628C312.807 207.427 326.845 208.262 342.035 205.581L339.255 189.824ZM305.967 187.702C296.349 183.935 288.475 177.938 282.222 169.596L269.42 179.193C277.445 189.899 287.724 197.74 300.132 202.6L305.967 187.702ZM282.269 169.659C276.095 161.252 271.808 150.891 269.594 138.348L253.838 141.129C256.41 155.7 261.526 168.443 269.373 179.129L282.269 169.659ZM269.594 138.348C267.376 125.779 267.785 114.48 270.589 104.316L255.166 100.06C251.637 112.848 251.271 126.584 253.838 141.129L269.594 138.348ZM270.578 104.356C273.444 94.1772 278.696 85.7931 286.385 79.0117L275.803 67.0115C265.75 75.8761 258.858 86.9432 255.177 100.021L270.578 104.356ZM286.385 79.0117C293.924 72.3631 304.072 67.6937 317.288 65.3612L314.508 49.6047C299.061 52.3309 286.005 58.014 275.803 67.0115L286.385 79.0117ZM317.288 65.3612C332.703 62.6408 345.377 64.4139 355.826 70.0045L363.374 55.8968C349.124 48.2724 332.664 46.4004 314.508 49.6047L317.288 65.3612ZM355.878 70.0322C366.14 75.4252 373.681 84.4327 378.308 97.865L393.436 92.6543C387.687 75.9648 377.714 63.433 363.322 55.8691L355.878 70.0322ZM384.482 87.3814L350.976 93.2947L353.757 109.051L387.262 103.138L384.482 87.3814ZM359.83 98.2926C356.71 90.2072 351.309 84.022 343.641 80.337L336.711 94.7582C340.39 96.5263 343.117 99.4246 344.903 104.053L359.83 98.2926ZM343.73 80.3804C336.285 76.6885 327.818 76.0132 318.849 77.5962L321.629 93.3527C328.154 92.2012 332.979 92.908 336.622 94.7148L343.73 80.3804ZM318.849 77.5962C310.812 79.0146 303.711 82.2788 297.793 87.4925L308.371 99.4977C311.901 96.3871 316.238 94.3042 321.629 93.3527L318.849 77.5962ZM297.902 87.3985C291.755 92.621 287.674 99.5441 285.46 107.732L300.905 111.91C302.396 106.396 304.915 102.435 308.262 99.5917L297.902 87.3985ZM285.477 107.67C283.179 115.903 283.201 125.325 285.019 135.626L300.776 132.845C299.221 124.037 299.433 117.182 300.888 111.971L285.477 107.67ZM285.019 135.626C286.793 145.675 289.908 154.393 294.677 161.413L307.912 152.422C304.767 147.792 302.284 141.388 300.776 132.845L285.019 135.626ZM294.79 161.576C299.654 168.366 305.812 173.401 313.27 176.319L319.099 161.418C314.831 159.748 311.062 156.816 307.798 152.259L294.79 161.576ZM313.405 176.37C320.727 179.083 328.524 179.607 336.601 178.182L333.82 162.425C328.21 163.415 323.324 162.982 318.965 161.367L313.405 176.37ZM336.601 178.182C345.404 176.628 353.044 173.389 358.827 167.929L347.844 156.294C344.954 159.022 340.51 161.244 333.82 162.425L336.601 178.182ZM358.863 167.896C364.857 162.168 368.035 154.903 368.326 146.578L352.335 146.019C352.186 150.288 350.701 153.565 347.809 156.328L358.863 167.896ZM361.721 154.177L395.227 148.264L392.446 132.507L358.94 138.421L361.721 154.177ZM385.836 140.439C385.923 153.472 381.925 164.001 374.023 172.569L385.784 183.417C396.657 171.629 401.947 157.087 401.836 140.332L385.836 140.439ZM374.023 172.569C366.076 181.185 354.722 187.095 339.255 189.824L342.035 205.581C360.138 202.386 374.956 195.156 385.784 183.417L374.023 172.569Z" fill="#AC4185" mask="url(#path-1-outside-1_293_3683)"/>
</g>
<g filter="url(#filter1_d_293_3683)">
<mask id="path-3-outside-2_293_3683" maskUnits="userSpaceOnUse" x="141.473" y="175.102" width="405.456" height="202.327" fill="black">
<rect fill="white" x="141.473" y="175.102" width="405.456" height="202.327"/>
<path d="M150.669 320.962L168.217 184.418L257.945 195.949L254.536 222.478L195.627 214.907L192.444 239.68L242.185 246.072L238.775 272.601L189.034 266.209L184.898 298.394L243.807 305.964L240.398 332.493L150.669 320.962ZM256.201 334.524L273.749 197.98L310.42 202.693L333.022 290.661L376.156 211.141L412.828 215.853L395.281 352.397L364.461 348.436L375.014 266.315L340.183 329.057L315.41 325.874L297.6 256.168L287.021 338.484L256.201 334.524ZM413.546 354.745L431.094 218.201L485.906 225.245C500.991 227.183 511.822 231.88 518.399 239.335C525.122 246.676 527.816 255.548 526.479 265.952C525.509 273.494 523.05 279.259 519.101 283.246C515.282 287.249 510.596 290.282 505.043 292.345C508.484 294.373 511.799 297.377 514.989 301.356C518.196 305.205 520.734 309.629 522.603 314.628C524.602 319.644 525.259 324.817 524.574 330.149C523.671 337.171 520.958 343.366 516.435 348.733C512.059 353.987 506.199 357.927 498.855 360.552C491.529 363.048 483.184 363.694 473.821 362.49L413.546 354.745ZM447.75 332.372L476.815 336.107C482.537 336.842 486.613 335.978 489.045 333.515C491.623 330.938 493.213 327.309 493.815 322.627C494.4 318.076 493.762 314.293 491.903 311.278C490.19 308.149 486.342 306.201 480.36 305.432L451.686 301.747L447.75 332.372ZM455.12 275.023L476.382 277.756C482.494 278.541 486.846 278.109 489.437 276.459C492.045 274.679 493.667 271.319 494.302 266.377C494.87 261.956 494.183 258.563 492.239 256.198C490.313 253.703 486.098 252.038 479.596 251.202L458.53 248.495L455.12 275.023Z"/>
</mask>
<path d="M150.669 320.962L168.217 184.418L257.945 195.949L254.536 222.478L195.627 214.907L192.444 239.68L242.185 246.072L238.775 272.601L189.034 266.209L184.898 298.394L243.807 305.964L240.398 332.493L150.669 320.962ZM256.201 334.524L273.749 197.98L310.42 202.693L333.022 290.661L376.156 211.141L412.828 215.853L395.281 352.397L364.461 348.436L375.014 266.315L340.183 329.057L315.41 325.874L297.6 256.168L287.021 338.484L256.201 334.524ZM413.546 354.745L431.094 218.201L485.906 225.245C500.991 227.183 511.822 231.88 518.399 239.335C525.122 246.676 527.816 255.548 526.479 265.952C525.509 273.494 523.05 279.259 519.101 283.246C515.282 287.249 510.596 290.282 505.043 292.345C508.484 294.373 511.799 297.377 514.989 301.356C518.196 305.205 520.734 309.629 522.603 314.628C524.602 319.644 525.259 324.817 524.574 330.149C523.671 337.171 520.958 343.366 516.435 348.733C512.059 353.987 506.199 357.927 498.855 360.552C491.529 363.048 483.184 363.694 473.821 362.49L413.546 354.745ZM447.75 332.372L476.815 336.107C482.537 336.842 486.613 335.978 489.045 333.515C491.623 330.938 493.213 327.309 493.815 322.627C494.4 318.076 493.762 314.293 491.903 311.278C490.19 308.149 486.342 306.201 480.36 305.432L451.686 301.747L447.75 332.372ZM455.12 275.023L476.382 277.756C482.494 278.541 486.846 278.109 489.437 276.459C492.045 274.679 493.667 271.319 494.302 266.377C494.87 261.956 494.183 258.563 492.239 256.198C490.313 253.703 486.098 252.038 479.596 251.202L458.53 248.495L455.12 275.023Z" fill="#42032B"/>
<path d="M150.669 320.962L142.734 319.942L141.715 327.877L149.649 328.896L150.669 320.962ZM168.217 184.418L169.236 176.483L161.302 175.463L160.282 183.398L168.217 184.418ZM257.945 195.949L265.88 196.969L266.9 189.034L258.965 188.014L257.945 195.949ZM254.536 222.478L253.517 230.412L261.451 231.432L262.471 223.497L254.536 222.478ZM195.627 214.907L196.647 206.972L188.712 205.953L187.693 213.887L195.627 214.907ZM192.444 239.68L184.509 238.66L183.489 246.595L191.424 247.615L192.444 239.68ZM242.185 246.072L250.119 247.092L251.139 239.157L243.204 238.138L242.185 246.072ZM238.775 272.601L237.756 280.536L245.69 281.555L246.71 273.621L238.775 272.601ZM189.034 266.209L190.054 258.274L182.119 257.254L181.1 265.189L189.034 266.209ZM184.898 298.394L176.964 297.374L175.944 305.309L183.879 306.329L184.898 298.394ZM243.807 305.964L251.742 306.984L252.762 299.049L244.827 298.03L243.807 305.964ZM240.398 332.493L239.378 340.428L247.313 341.447L248.333 333.513L240.398 332.493ZM158.604 321.981L176.151 185.438L160.282 183.398L142.734 319.942L158.604 321.981ZM167.197 192.353L256.926 203.884L258.965 188.014L169.236 176.483L167.197 192.353ZM250.011 194.929L246.601 221.458L262.471 223.497L265.88 196.969L250.011 194.929ZM255.556 214.543L196.647 206.972L194.608 222.842L253.517 230.412L255.556 214.543ZM187.693 213.887L184.509 238.66L200.378 240.7L203.562 215.927L187.693 213.887ZM191.424 247.615L241.165 254.007L243.204 238.138L193.463 231.745L191.424 247.615ZM234.25 245.053L230.841 271.581L246.71 273.621L250.119 247.092L234.25 245.053ZM239.795 264.666L190.054 258.274L188.015 274.143L237.756 280.536L239.795 264.666ZM181.1 265.189L176.964 297.374L192.833 299.414L196.969 267.228L181.1 265.189ZM183.879 306.329L242.787 313.899L244.827 298.03L185.918 290.459L183.879 306.329ZM235.872 304.945L232.463 331.473L248.333 333.513L251.742 306.984L235.872 304.945ZM241.418 324.558L151.689 313.027L149.649 328.896L239.378 340.428L241.418 324.558ZM256.201 334.524L248.266 333.504L247.247 341.439L255.181 342.459L256.201 334.524ZM273.749 197.98L274.768 190.045L266.834 189.026L265.814 196.96L273.749 197.98ZM310.42 202.693L318.169 200.702L316.819 195.449L311.44 194.758L310.42 202.693ZM333.022 290.661L325.274 292.652L330.342 312.38L340.054 294.476L333.022 290.661ZM376.156 211.141L377.176 203.206L371.738 202.507L369.124 207.326L376.156 211.141ZM412.828 215.853L420.763 216.873L421.783 208.938L413.848 207.919L412.828 215.853ZM395.281 352.397L394.261 360.332L402.196 361.352L403.215 353.417L395.281 352.397ZM364.461 348.436L356.526 347.417L355.506 355.351L363.441 356.371L364.461 348.436ZM375.014 266.315L382.949 267.335L368.02 262.432L375.014 266.315ZM340.183 329.057L339.163 336.992L344.544 337.683L347.177 332.94L340.183 329.057ZM315.41 325.874L307.659 327.854L309.003 333.116L314.39 333.808L315.41 325.874ZM297.6 256.168L305.351 254.188L289.665 255.148L297.6 256.168ZM287.021 338.484L286.001 346.419L293.936 347.439L294.956 339.504L287.021 338.484ZM264.136 335.543L281.683 199L265.814 196.96L248.266 333.504L264.136 335.543ZM272.729 205.915L309.401 210.628L311.44 194.758L274.768 190.045L272.729 205.915ZM302.672 204.684L325.274 292.652L340.77 288.67L318.169 200.702L302.672 204.684ZM340.054 294.476L383.188 214.955L369.124 207.326L325.99 286.847L340.054 294.476ZM375.137 219.075L411.808 223.788L413.848 207.919L377.176 203.206L375.137 219.075ZM404.893 214.834L387.346 351.377L403.215 353.417L420.763 216.873L404.893 214.834ZM396.3 344.462L365.48 340.502L363.441 356.371L394.261 360.332L396.3 344.462ZM372.395 349.456L382.949 267.335L367.08 265.295L356.526 347.417L372.395 349.456ZM368.02 262.432L333.188 325.174L347.177 332.94L382.009 270.198L368.02 262.432ZM341.203 321.122L316.43 317.939L314.39 333.808L339.163 336.992L341.203 321.122ZM323.161 323.893L305.351 254.188L289.849 258.149L307.659 327.854L323.161 323.893ZM289.665 255.148L279.086 337.465L294.956 339.504L305.534 257.188L289.665 255.148ZM288.041 330.55L257.221 326.589L255.181 342.459L286.001 346.419L288.041 330.55ZM413.546 354.745L405.612 353.725L404.592 361.66L412.527 362.679L413.546 354.745ZM431.094 218.201L432.114 210.266L424.179 209.246L423.159 217.181L431.094 218.201ZM518.399 239.335L512.4 244.627L512.449 244.683L512.499 244.738L518.399 239.335ZM519.101 283.246L513.417 277.616L513.364 277.669L513.312 277.724L519.101 283.246ZM505.043 292.345L502.258 284.845L486.499 290.699L500.98 299.236L505.043 292.345ZM514.989 301.356L508.747 306.36L508.794 306.419L508.843 306.477L514.989 301.356ZM522.603 314.628L515.109 317.43L515.139 317.51L515.171 317.59L522.603 314.628ZM516.435 348.733L510.318 343.578L510.303 343.596L510.288 343.613L516.435 348.733ZM498.855 360.552L501.434 368.125L501.492 368.106L501.548 368.085L498.855 360.552ZM447.75 332.372L439.816 331.352L438.796 339.287L446.731 340.307L447.75 332.372ZM489.045 333.515L483.39 327.856L483.37 327.875L483.351 327.895L489.045 333.515ZM491.903 311.278L484.886 315.12L484.985 315.301L485.094 315.477L491.903 311.278ZM451.686 301.747L452.706 293.812L444.771 292.793L443.751 300.727L451.686 301.747ZM455.12 275.023L447.186 274.004L446.166 281.938L454.101 282.958L455.12 275.023ZM489.437 276.459L493.734 283.208L493.841 283.139L493.947 283.067L489.437 276.459ZM492.239 256.198L485.908 261.088L485.982 261.183L486.059 261.277L492.239 256.198ZM458.53 248.495L459.549 240.56L451.615 239.54L450.595 247.475L458.53 248.495ZM421.481 355.764L439.029 219.22L423.159 217.181L405.612 353.725L421.481 355.764ZM430.074 226.136L484.887 233.18L486.926 217.31L432.114 210.266L430.074 226.136ZM484.887 233.18C499.028 234.997 507.638 239.23 512.4 244.627L524.398 234.042C516.006 224.53 502.955 219.37 486.926 217.31L484.887 233.18ZM512.499 244.738C517.537 250.238 519.599 256.722 518.544 264.932L534.413 266.971C536.032 254.375 532.708 243.114 524.299 233.932L512.499 244.738ZM518.544 264.932C517.72 271.344 515.757 275.254 513.417 277.616L524.784 288.876C530.343 283.264 533.299 275.644 534.413 266.971L518.544 264.932ZM513.312 277.724C510.389 280.788 506.754 283.175 502.258 284.845L507.829 299.844C514.437 297.389 520.174 293.711 524.889 288.768L513.312 277.724ZM500.98 299.236C503.391 300.657 506.003 302.937 508.747 306.36L521.231 296.352C517.595 291.817 513.577 288.089 509.106 285.453L500.98 299.236ZM508.843 306.477C511.436 309.59 513.535 313.219 515.109 317.43L530.096 311.826C527.932 306.039 524.955 300.82 521.135 296.235L508.843 306.477ZM515.171 317.59C516.669 321.349 517.15 325.153 516.639 329.129L532.508 331.169C533.368 324.482 532.534 317.939 530.034 311.666L515.171 317.59ZM516.639 329.129C515.931 334.641 513.841 339.397 510.318 343.578L522.553 353.889C528.075 347.335 531.412 339.702 532.508 331.169L516.639 329.129ZM510.288 343.613C506.949 347.621 502.352 350.806 496.162 353.019L501.548 368.085C510.045 365.048 517.168 360.353 522.582 353.854L510.288 343.613ZM496.276 352.979C490.332 355.004 483.254 355.637 474.84 354.556L472.801 370.425C483.114 371.751 492.725 371.091 501.434 368.125L496.276 352.979ZM474.84 354.556L414.566 346.81L412.527 362.679L472.801 370.425L474.84 354.556ZM446.731 340.307L475.795 344.042L477.834 328.172L448.77 324.437L446.731 340.307ZM475.795 344.042C482.362 344.886 489.653 344.286 494.738 339.135L483.351 327.895C483.443 327.802 483.328 328.01 482.505 328.184C481.613 328.373 480.12 328.466 477.834 328.172L475.795 344.042ZM494.7 339.173C498.858 335.018 500.989 329.563 501.75 323.647L485.88 321.607C485.437 325.054 484.389 326.857 483.39 327.856L494.7 339.173ZM501.75 323.647C502.498 317.822 501.786 312.062 498.711 307.078L485.094 315.477C485.739 316.523 486.301 318.33 485.88 321.607L501.75 323.647ZM498.92 307.435C495.327 300.875 488.164 298.369 481.38 297.497L479.341 313.367C481.76 313.678 483.26 314.173 484.118 314.607C484.907 315.006 484.955 315.246 484.886 315.12L498.92 307.435ZM481.38 297.497L452.706 293.812L450.666 309.682L479.341 313.367L481.38 297.497ZM443.751 300.727L439.816 331.352L455.685 333.392L459.621 302.767L443.751 300.727ZM454.101 282.958L475.362 285.691L477.402 269.821L456.14 267.089L454.101 282.958ZM475.362 285.691C481.752 286.512 488.604 286.473 493.734 283.208L485.141 269.711C485.254 269.639 484.861 269.919 483.439 270.06C482.055 270.197 480.081 270.165 477.402 269.821L475.362 285.691ZM493.947 283.067C499.301 279.413 501.476 273.313 502.237 267.397L486.367 265.357C486.125 267.243 485.74 268.432 485.404 269.127C485.243 269.461 485.109 269.65 485.031 269.745C484.992 269.792 484.964 269.82 484.949 269.833C484.935 269.847 484.928 269.851 484.928 269.851L493.947 283.067ZM502.237 267.397C502.957 261.795 502.3 255.839 498.42 251.119L486.059 261.277C486.066 261.286 486.784 262.116 486.367 265.357L502.237 267.397ZM498.571 251.308C496.424 248.528 493.467 246.781 490.573 245.638C487.642 244.479 484.26 243.736 480.616 243.268L478.577 259.137C481.435 259.504 483.411 260.011 484.694 260.518C486.014 261.04 486.128 261.373 485.908 261.088L498.571 251.308ZM480.616 243.268L459.549 240.56L457.51 256.43L478.577 259.137L480.616 243.268ZM450.595 247.475L447.186 274.004L463.055 276.043L466.464 249.515L450.595 247.475Z" fill="#42032B" mask="url(#path-3-outside-2_293_3683)"/>
</g>
<g filter="url(#filter2_d_293_3683)">
<mask id="path-5-outside-3_293_3683" maskUnits="userSpaceOnUse" x="95.1942" y="302.502" width="257.409" height="184.509" fill="black">
<rect fill="white" x="95.1942" y="302.502" width="257.409" height="184.509"/>
<path d="M122.842 477.983L104.476 341.547L194.134 329.477L197.702 355.985L138.84 363.909L142.172 388.662L191.873 381.972L195.442 408.479L145.74 415.17L150.07 447.33L208.932 439.406L212.5 465.913L122.842 477.983ZM228.291 463.788L209.924 327.352L261.965 320.346C271.32 319.087 279.79 319.6 287.374 321.887C294.958 324.173 301.175 328.099 306.025 333.664C310.858 339.099 313.834 345.974 314.954 354.29C316.178 363.386 314.733 371.32 310.617 378.091C306.502 384.863 300.266 390.135 291.91 393.905L337.245 449.121L301.771 453.896L261.744 402.729L251.609 404.093L259.086 459.642L228.291 463.788ZM248.093 377.975L268.753 375.194C273.561 374.547 277.038 373.351 279.184 371.607C281.443 369.715 282.879 367.604 283.491 365.273C284.103 362.941 284.261 360.671 283.963 358.462C283.666 356.253 282.923 354.17 281.733 352.214C280.526 350.127 278.592 348.535 275.931 347.438C273.399 346.324 269.73 346.09 264.922 346.738L244.262 349.519L248.093 377.975Z"/>
</mask>
<path d="M122.842 477.983L104.476 341.547L194.134 329.477L197.702 355.985L138.84 363.909L142.172 388.662L191.873 381.972L195.442 408.479L145.74 415.17L150.07 447.33L208.932 439.406L212.5 465.913L122.842 477.983ZM228.291 463.788L209.924 327.352L261.965 320.346C271.32 319.087 279.79 319.6 287.374 321.887C294.958 324.173 301.175 328.099 306.025 333.664C310.858 339.099 313.834 345.974 314.954 354.29C316.178 363.386 314.733 371.32 310.617 378.091C306.502 384.863 300.266 390.135 291.91 393.905L337.245 449.121L301.771 453.896L261.744 402.729L251.609 404.093L259.086 459.642L228.291 463.788ZM248.093 377.975L268.753 375.194C273.561 374.547 277.038 373.351 279.184 371.607C281.443 369.715 282.879 367.604 283.491 365.273C284.103 362.941 284.261 360.671 283.963 358.462C283.666 356.253 282.923 354.17 281.733 352.214C280.526 350.127 278.592 348.535 275.931 347.438C273.399 346.324 269.73 346.09 264.922 346.738L244.262 349.519L248.093 377.975Z" fill="#392843"/>
<path d="M122.842 477.983L114.914 479.05L115.981 486.979L123.91 485.911L122.842 477.983ZM104.476 341.547L103.408 333.619L95.4798 334.686L96.5472 342.614L104.476 341.547ZM194.134 329.477L202.062 328.41L200.995 320.482L193.066 321.549L194.134 329.477ZM197.702 355.985L198.769 363.913L206.698 362.846L205.63 354.918L197.702 355.985ZM138.84 363.909L137.772 355.98L129.844 357.048L130.911 364.976L138.84 363.909ZM142.172 388.662L134.243 389.73L135.311 397.658L143.239 396.591L142.172 388.662ZM191.873 381.972L199.802 380.904L198.735 372.976L190.806 374.043L191.873 381.972ZM195.442 408.479L196.509 416.408L204.438 415.34L203.37 407.412L195.442 408.479ZM145.74 415.17L144.673 407.241L136.744 408.309L137.812 416.237L145.74 415.17ZM150.07 447.33L142.141 448.397L143.208 456.326L151.137 455.258L150.07 447.33ZM208.932 439.406L216.86 438.339L215.793 430.41L207.865 431.477L208.932 439.406ZM212.5 465.913L213.568 473.842L221.496 472.775L220.429 464.846L212.5 465.913ZM130.771 476.916L112.404 340.48L96.5472 342.614L114.914 479.05L130.771 476.916ZM105.543 349.475L195.201 337.406L193.066 321.549L103.408 333.619L105.543 349.475ZM186.205 330.545L189.773 357.052L205.63 354.918L202.062 328.41L186.205 330.545ZM196.635 348.057L137.772 355.98L139.907 371.837L198.769 363.913L196.635 348.057ZM130.911 364.976L134.243 389.73L150.1 387.595L146.768 362.842L130.911 364.976ZM143.239 396.591L192.941 389.9L190.806 374.043L141.105 380.734L143.239 396.591ZM183.945 383.039L187.513 409.546L203.37 407.412L199.802 380.904L183.945 383.039ZM194.375 400.551L144.673 407.241L146.808 423.098L196.509 416.408L194.375 400.551ZM137.812 416.237L142.141 448.397L157.998 446.262L153.669 414.103L137.812 416.237ZM151.137 455.258L209.999 447.334L207.865 431.477L149.002 439.401L151.137 455.258ZM201.003 440.473L204.572 466.981L220.429 464.846L216.86 438.339L201.003 440.473ZM211.433 457.985L121.775 470.054L123.91 485.911L213.568 473.842L211.433 457.985ZM228.291 463.788L220.362 464.855L221.43 472.784L229.358 471.716L228.291 463.788ZM209.924 327.352L208.857 319.423L200.928 320.491L201.996 328.419L209.924 327.352ZM287.374 321.887L285.065 329.546L287.374 321.887ZM306.025 333.664L299.995 338.92L300.021 338.95L300.047 338.98L306.025 333.664ZM310.617 378.091L317.454 382.246L317.454 382.246L310.617 378.091ZM291.91 393.905L288.619 386.613L279.099 390.91L285.727 398.982L291.91 393.905ZM337.245 449.121L338.312 457.049L352.534 455.135L343.428 444.044L337.245 449.121ZM301.771 453.896L295.47 458.825L298.295 462.436L302.839 461.824L301.771 453.896ZM261.744 402.729L268.045 397.8L265.22 394.189L260.677 394.8L261.744 402.729ZM251.609 404.093L250.541 396.165L242.613 397.232L243.68 405.16L251.609 404.093ZM259.086 459.642L260.154 467.571L268.082 466.503L267.015 458.575L259.086 459.642ZM248.093 377.975L240.164 379.043L241.231 386.971L249.16 385.904L248.093 377.975ZM279.184 371.607L284.229 377.816L284.275 377.779L284.32 377.741L279.184 371.607ZM281.733 352.214L274.808 356.219L274.852 356.295L274.897 356.369L281.733 352.214ZM275.931 347.438L272.707 354.76L272.794 354.799L272.882 354.835L275.931 347.438ZM244.262 349.519L243.195 341.59L235.266 342.658L236.333 350.586L244.262 349.519ZM236.219 462.72L217.853 326.284L201.996 328.419L220.362 464.855L236.219 462.72ZM210.992 335.28L263.032 328.275L260.897 312.418L208.857 319.423L210.992 335.28ZM263.032 328.275C271.47 327.139 278.764 327.646 285.065 329.546L289.683 314.227C280.817 311.554 271.171 311.035 260.897 312.418L263.032 328.275ZM285.065 329.546C291.317 331.431 296.207 334.574 299.995 338.92L312.056 328.407C306.144 321.623 298.599 316.915 289.683 314.227L285.065 329.546ZM300.047 338.98C303.665 343.049 306.085 348.37 307.025 355.357L322.882 353.223C321.584 343.578 318.051 335.148 312.004 328.348L300.047 338.98ZM307.025 355.357C308.046 362.94 306.799 368.971 303.781 373.937L317.454 382.246C322.667 373.669 324.31 363.832 322.882 353.223L307.025 355.357ZM303.781 373.937C300.629 379.122 295.741 383.399 288.619 386.613L295.2 401.197C304.79 396.87 312.374 390.605 317.454 382.246L303.781 373.937ZM285.727 398.982L331.062 454.197L343.428 444.044L298.093 388.829L285.727 398.982ZM336.177 441.192L300.704 445.967L302.839 461.824L338.312 457.049L336.177 441.192ZM308.072 448.967L268.045 397.8L255.443 407.658L295.47 458.825L308.072 448.967ZM260.677 394.8L250.541 396.165L252.676 412.022L262.811 410.657L260.677 394.8ZM243.68 405.16L251.158 460.709L267.015 458.575L259.537 403.026L243.68 405.16ZM258.019 451.714L227.224 455.859L229.358 471.716L260.154 467.571L258.019 451.714ZM249.16 385.904L269.82 383.123L267.686 367.266L247.025 370.047L249.16 385.904ZM269.82 383.123C275.128 382.408 280.37 380.952 284.229 377.816L274.139 365.398C273.705 365.751 271.993 366.686 267.686 367.266L269.82 383.123ZM284.32 377.741C287.564 375.025 290.109 371.567 291.229 367.304L275.753 363.241C275.648 363.641 275.323 364.406 274.048 365.474L284.32 377.741ZM291.229 367.304C292.085 364.045 292.34 360.721 291.892 357.395L276.035 359.529C276.182 360.621 276.122 361.837 275.753 363.241L291.229 367.304ZM291.892 357.395C291.443 354.062 290.316 350.931 288.569 348.058L274.897 356.369C275.529 357.409 275.889 358.444 276.035 359.529L291.892 357.395ZM288.658 348.208C286.406 344.315 282.944 341.676 278.98 340.042L272.882 354.835C274.24 355.394 274.646 355.94 274.808 356.219L288.658 348.208ZM279.154 340.117C274.603 338.113 269.163 338.095 263.855 338.809L265.99 354.666C270.297 354.086 272.196 354.535 272.707 354.76L279.154 340.117ZM263.855 338.809L243.195 341.59L245.329 357.447L265.99 354.666L263.855 338.809ZM236.333 350.586L240.164 379.043L256.021 376.908L252.19 348.451L236.333 350.586Z" fill="#392843" mask="url(#path-5-outside-3_293_3683)"/>
</g>
<g filter="url(#filter3_d_293_3683)">
<mask id="path-7-outside-4_293_3683" maskUnits="userSpaceOnUse" x="357.642" y="383.055" width="130.881" height="60.2951" fill="black">
<rect fill="white" x="357.642" y="383.055" width="130.881" height="60.2951"/>
<path d="M360.417 419.927L361.496 413.493L369.538 414.843L372.634 396.393L364.724 396.573L365.708 390.707L377.09 388.677L381.016 389.336L376.54 416.017L383.92 417.255L382.841 423.689L360.417 419.927ZM385.328 424.106L386.161 419.139C386.161 419.139 386.271 419.06 386.492 418.903C386.719 418.714 387.053 418.462 387.495 418.147C387.942 417.8 388.481 417.388 389.113 416.91C389.781 416.406 390.541 415.837 391.394 415.202C392.278 414.572 393.24 413.858 394.282 413.06C396.103 411.679 397.786 410.437 399.333 409.335C400.88 408.233 402.159 407.182 403.169 406.185C404.185 405.155 404.78 404.12 404.955 403.079C405.156 401.881 404.886 400.879 404.146 400.074C403.437 399.274 402.546 398.784 401.474 398.604C400.433 398.43 399.539 398.539 398.792 398.933C398.082 399.3 397.506 399.836 397.063 400.54C396.653 401.249 396.376 402.029 396.233 402.881L389.042 401.675C389.565 399.136 390.469 397.131 391.753 395.66C393.043 394.158 394.624 393.142 396.496 392.613C398.368 392.084 400.44 392.01 402.711 392.391C405.423 392.846 407.499 393.713 408.938 394.993C410.414 396.245 411.385 397.705 411.851 399.372C412.323 401.008 412.423 402.63 412.153 404.238C411.889 405.815 411.314 407.211 410.43 408.424C409.577 409.643 408.403 410.84 406.909 412.016C405.451 413.166 403.673 414.489 401.574 415.985C401.574 415.985 401.408 416.103 401.076 416.34C400.745 416.576 400.34 416.865 399.861 417.206C399.382 417.547 398.904 417.888 398.425 418.229C397.946 418.571 397.541 418.859 397.209 419.096C396.878 419.332 396.712 419.45 396.712 419.45L409.864 421.656L408.792 428.043L385.328 424.106ZM414.279 418.117L415.319 411.919L428.423 414.118L427.383 420.315L414.279 418.117ZM441.266 434.074C438.239 433.566 435.937 432.402 434.362 430.581C432.787 428.761 431.806 426.488 431.42 423.765C431.034 421.041 431.11 418.071 431.65 414.854C432.19 411.637 433.086 408.804 434.34 406.355C435.594 403.907 437.263 402.079 439.346 400.872C441.429 399.665 443.985 399.315 447.012 399.823C450.04 400.331 452.328 401.477 453.877 403.261C455.458 405.05 456.441 407.307 456.827 410.03C457.214 412.754 457.132 415.756 456.581 419.036C456.031 422.316 455.129 425.18 453.875 427.629C452.621 430.078 450.955 431.89 448.877 433.065C446.831 434.246 444.294 434.582 441.266 434.074ZM442.377 427.451C444.081 427.737 445.482 427.015 446.583 425.287C447.689 423.527 448.514 421.023 449.059 417.774C449.604 414.526 449.639 411.905 449.162 409.912C448.691 407.887 447.604 406.732 445.901 406.446C444.198 406.161 442.778 406.895 441.64 408.65C440.54 410.379 439.717 412.867 439.172 416.116C438.627 419.364 438.59 422.001 439.061 424.025C439.569 426.023 440.674 427.165 442.377 427.451ZM457.804 436.265L458.884 429.831L466.926 431.18L470.021 412.73L462.111 412.911L463.095 407.045L474.477 405.015L478.404 405.673L473.928 432.355L481.308 433.593L480.228 440.027L457.804 436.265Z"/>
</mask>
<path d="M360.417 419.927L361.496 413.493L369.538 414.843L372.634 396.393L364.724 396.573L365.708 390.707L377.09 388.677L381.016 389.336L376.54 416.017L383.92 417.255L382.841 423.689L360.417 419.927ZM385.328 424.106L386.161 419.139C386.161 419.139 386.271 419.06 386.492 418.903C386.719 418.714 387.053 418.462 387.495 418.147C387.942 417.8 388.481 417.388 389.113 416.91C389.781 416.406 390.541 415.837 391.394 415.202C392.278 414.572 393.24 413.858 394.282 413.06C396.103 411.679 397.786 410.437 399.333 409.335C400.88 408.233 402.159 407.182 403.169 406.185C404.185 405.155 404.78 404.12 404.955 403.079C405.156 401.881 404.886 400.879 404.146 400.074C403.437 399.274 402.546 398.784 401.474 398.604C400.433 398.43 399.539 398.539 398.792 398.933C398.082 399.3 397.506 399.836 397.063 400.54C396.653 401.249 396.376 402.029 396.233 402.881L389.042 401.675C389.565 399.136 390.469 397.131 391.753 395.66C393.043 394.158 394.624 393.142 396.496 392.613C398.368 392.084 400.44 392.01 402.711 392.391C405.423 392.846 407.499 393.713 408.938 394.993C410.414 396.245 411.385 397.705 411.851 399.372C412.323 401.008 412.423 402.63 412.153 404.238C411.889 405.815 411.314 407.211 410.43 408.424C409.577 409.643 408.403 410.84 406.909 412.016C405.451 413.166 403.673 414.489 401.574 415.985C401.574 415.985 401.408 416.103 401.076 416.34C400.745 416.576 400.34 416.865 399.861 417.206C399.382 417.547 398.904 417.888 398.425 418.229C397.946 418.571 397.541 418.859 397.209 419.096C396.878 419.332 396.712 419.45 396.712 419.45L409.864 421.656L408.792 428.043L385.328 424.106ZM414.279 418.117L415.319 411.919L428.423 414.118L427.383 420.315L414.279 418.117ZM441.266 434.074C438.239 433.566 435.937 432.402 434.362 430.581C432.787 428.761 431.806 426.488 431.42 423.765C431.034 421.041 431.11 418.071 431.65 414.854C432.19 411.637 433.086 408.804 434.34 406.355C435.594 403.907 437.263 402.079 439.346 400.872C441.429 399.665 443.985 399.315 447.012 399.823C450.04 400.331 452.328 401.477 453.877 403.261C455.458 405.05 456.441 407.307 456.827 410.03C457.214 412.754 457.132 415.756 456.581 419.036C456.031 422.316 455.129 425.18 453.875 427.629C452.621 430.078 450.955 431.89 448.877 433.065C446.831 434.246 444.294 434.582 441.266 434.074ZM442.377 427.451C444.081 427.737 445.482 427.015 446.583 425.287C447.689 423.527 448.514 421.023 449.059 417.774C449.604 414.526 449.639 411.905 449.162 409.912C448.691 407.887 447.604 406.732 445.901 406.446C444.198 406.161 442.778 406.895 441.64 408.65C440.54 410.379 439.717 412.867 439.172 416.116C438.627 419.364 438.59 422.001 439.061 424.025C439.569 426.023 440.674 427.165 442.377 427.451ZM457.804 436.265L458.884 429.831L466.926 431.18L470.021 412.73L462.111 412.911L463.095 407.045L474.477 405.015L478.404 405.673L473.928 432.355L481.308 433.593L480.228 440.027L457.804 436.265Z" fill="white"/>
<path d="M360.417 419.927L358.492 419.604L358.17 421.529L360.094 421.852L360.417 419.927ZM361.496 413.493L361.819 411.569L359.895 411.246L359.572 413.171L361.496 413.493ZM369.538 414.843L369.216 416.767L371.14 417.09L371.463 415.165L369.538 414.843ZM372.634 396.393L374.558 396.715L374.948 394.388L372.589 394.442L372.634 396.393ZM364.724 396.573L362.799 396.251L362.409 398.578L364.768 398.524L364.724 396.573ZM365.708 390.707L365.365 388.786L364.011 389.028L363.783 390.384L365.708 390.707ZM377.09 388.677L377.412 386.752L377.079 386.697L376.747 386.756L377.09 388.677ZM381.016 389.336L382.94 389.658L383.263 387.734L381.339 387.411L381.016 389.336ZM376.54 416.017L374.616 415.694L374.293 417.619L376.217 417.942L376.54 416.017ZM383.92 417.255L385.844 417.578L386.167 415.654L384.243 415.331L383.92 417.255ZM382.841 423.689L382.518 425.614L384.442 425.936L384.765 424.012L382.841 423.689ZM362.341 420.25L363.42 413.816L359.572 413.171L358.492 419.604L362.341 420.25ZM361.173 415.418L369.216 416.767L369.861 412.918L361.819 411.569L361.173 415.418ZM371.463 415.165L374.558 396.715L370.709 396.07L367.614 414.52L371.463 415.165ZM372.589 394.442L364.679 394.623L364.768 398.524L372.678 398.343L372.589 394.442ZM366.648 396.896L367.632 391.03L363.783 390.384L362.799 396.251L366.648 396.896ZM366.05 392.628L377.432 390.598L376.747 386.756L365.365 388.786L366.05 392.628ZM376.767 390.601L380.693 391.26L381.339 387.411L377.412 386.752L376.767 390.601ZM379.092 389.013L374.616 415.694L378.464 416.34L382.94 389.658L379.092 389.013ZM376.217 417.942L383.597 419.18L384.243 415.331L376.863 414.093L376.217 417.942ZM381.996 416.932L380.916 423.366L384.765 424.012L385.844 417.578L381.996 416.932ZM383.164 421.765L360.74 418.003L360.094 421.852L382.518 425.614L383.164 421.765ZM385.328 424.106L383.403 423.784L383.08 425.708L385.005 426.031L385.328 424.106ZM386.161 419.139L385.029 417.55L384.37 418.019L384.237 418.816L386.161 419.139ZM386.492 418.903L387.625 420.492L387.686 420.448L387.743 420.4L386.492 418.903ZM387.495 418.147L388.627 419.736L388.659 419.713L388.69 419.689L387.495 418.147ZM389.113 416.91L387.938 415.353L387.935 415.354L389.113 416.91ZM391.394 415.202L390.261 413.613L390.244 413.625L390.228 413.637L391.394 415.202ZM394.282 413.06L393.103 411.505L393.096 411.511L394.282 413.06ZM399.333 409.335L398.201 407.746L398.201 407.746L399.333 409.335ZM403.169 406.185L404.54 407.573L404.549 407.564L404.558 407.555L403.169 406.185ZM404.146 400.074L402.685 401.368L402.697 401.382L402.709 401.395L404.146 400.074ZM398.792 398.933L399.689 400.666L399.695 400.662L399.702 400.659L398.792 398.933ZM397.063 400.54L395.411 399.501L395.393 399.531L395.375 399.562L397.063 400.54ZM396.233 402.881L395.91 404.805L397.835 405.128L398.157 403.204L396.233 402.881ZM389.042 401.675L387.131 401.281L386.722 403.264L388.719 403.599L389.042 401.675ZM391.753 395.66L393.223 396.944L393.229 396.938L393.234 396.931L391.753 395.66ZM396.496 392.613L395.966 390.736L396.496 392.613ZM408.938 394.993L407.642 396.451L407.658 396.466L407.675 396.48L408.938 394.993ZM411.851 399.372L409.972 399.898L409.974 399.905L409.976 399.913L411.851 399.372ZM410.43 408.424L408.853 407.275L408.842 407.29L408.831 407.305L410.43 408.424ZM406.909 412.016L405.702 410.483L405.7 410.484L406.909 412.016ZM401.574 415.985L402.706 417.574L401.574 415.985ZM401.076 416.34L399.944 414.751L399.944 414.751L401.076 416.34ZM399.861 417.206L400.994 418.795L400.994 418.795L399.861 417.206ZM398.425 418.229L399.557 419.818L399.557 419.818L398.425 418.229ZM396.712 419.45L395.58 417.861L391.743 420.595L396.389 421.374L396.712 419.45ZM409.864 421.656L411.788 421.979L412.111 420.055L410.187 419.732L409.864 421.656ZM408.792 428.043L408.47 429.967L410.394 430.29L410.717 428.366L408.792 428.043ZM387.252 424.429L388.085 419.462L384.237 418.816L383.403 423.784L387.252 424.429ZM386.161 419.139C387.293 420.728 387.293 420.728 387.293 420.728C387.293 420.728 387.293 420.728 387.293 420.728C387.293 420.728 387.293 420.728 387.293 420.728C387.293 420.728 387.293 420.728 387.293 420.728C387.294 420.728 387.293 420.728 387.294 420.728C387.294 420.728 387.293 420.728 387.294 420.728C387.294 420.728 387.294 420.728 387.294 420.728C387.294 420.728 387.294 420.728 387.294 420.728C387.294 420.728 387.294 420.728 387.294 420.728C387.294 420.728 387.294 420.728 387.294 420.728C387.294 420.727 387.294 420.728 387.294 420.728C387.294 420.727 387.294 420.727 387.294 420.727C387.294 420.727 387.294 420.727 387.295 420.727C387.295 420.727 387.295 420.727 387.295 420.727C387.295 420.727 387.294 420.727 387.295 420.727C387.3 420.724 387.293 420.728 387.299 420.724C387.3 420.724 387.303 420.721 387.305 420.72C387.32 420.709 387.299 420.724 387.314 420.713C387.337 420.697 387.339 420.695 387.376 420.669C387.388 420.661 387.408 420.647 387.423 420.636C387.43 420.631 387.419 420.639 387.426 420.633C387.431 420.63 387.425 420.635 387.429 420.631C387.44 420.624 387.426 420.633 387.436 420.626C387.438 420.625 387.441 420.623 387.443 420.621C387.45 420.617 387.444 420.621 387.45 420.616C387.486 420.591 387.443 420.622 387.48 420.595C387.546 420.548 387.422 420.637 387.488 420.59C387.499 420.582 387.485 420.592 387.496 420.584C387.548 420.547 387.46 420.609 387.512 420.572C387.513 420.571 387.52 420.567 387.521 420.566C387.522 420.565 387.528 420.561 387.529 420.56C387.548 420.547 387.528 420.561 387.547 420.547C387.575 420.527 387.556 420.541 387.585 420.52C387.63 420.489 387.579 420.524 387.625 420.492L385.36 417.314C385.213 417.418 385.203 417.426 385.111 417.491C385.107 417.494 385.096 417.502 385.092 417.505C385.074 417.518 385.092 417.504 385.075 417.517C385.068 417.522 385.075 417.517 385.068 417.522C385.067 417.522 385.067 417.522 385.067 417.523C385.067 417.523 385.066 417.523 385.066 417.523C385.064 417.525 385.066 417.523 385.064 417.525C385.062 417.526 385.065 417.524 385.063 417.526C385.062 417.526 385.062 417.526 385.062 417.526C385.062 417.526 385.062 417.526 385.062 417.526C385.062 417.526 385.061 417.527 385.061 417.527C385.061 417.527 385.061 417.527 385.061 417.527C385.055 417.531 385.055 417.531 385.049 417.535C385.037 417.544 385.042 417.54 385.034 417.546C385.032 417.548 385.033 417.547 385.031 417.548C385.031 417.548 385.031 417.548 385.031 417.549C385.03 417.549 385.03 417.549 385.03 417.549C385.03 417.549 385.03 417.549 385.03 417.549C385.029 417.55 385.03 417.549 385.029 417.549C385.029 417.55 385.029 417.55 385.029 417.55C385.029 417.55 385.029 417.55 385.029 417.55C385.029 417.55 385.029 417.55 385.029 417.55C385.029 417.55 385.029 417.55 385.029 417.55C385.029 417.55 385.029 417.55 385.029 417.55C385.029 417.55 385.029 417.55 385.029 417.55C385.028 417.55 385.029 417.55 385.029 417.55C385.029 417.55 385.029 417.55 385.029 417.55C385.029 417.55 385.029 417.55 385.029 417.55C385.029 417.55 385.029 417.55 385.029 417.55C385.029 417.55 385.029 417.55 386.161 419.139ZM387.743 420.4C387.912 420.259 388.198 420.042 388.627 419.736L386.362 416.558C385.907 416.882 385.525 417.168 385.241 417.405L387.743 420.4ZM388.69 419.689C389.129 419.349 389.663 418.941 390.29 418.466L387.935 415.354C387.3 415.835 386.755 416.252 386.3 416.604L388.69 419.689ZM390.288 418.468C390.952 417.967 391.71 417.4 392.56 416.766L390.228 413.637C389.373 414.274 388.61 414.846 387.938 415.353L390.288 418.468ZM392.526 416.791C393.432 416.145 394.413 415.418 395.469 414.609L393.096 411.511C392.068 412.298 391.124 412.998 390.261 413.613L392.526 416.791ZM395.461 414.614C397.269 413.243 398.937 412.013 400.466 410.924L398.201 407.746C396.635 408.861 394.936 410.115 393.103 411.505L395.461 414.614ZM400.466 410.924C402.071 409.78 403.436 408.664 404.54 407.573L401.798 404.796C400.882 405.701 399.689 406.685 398.201 407.746L400.466 410.924ZM404.558 407.555C405.754 406.343 406.618 404.961 406.879 403.402L403.03 402.757C402.943 403.279 402.616 403.967 401.78 404.814L404.558 407.555ZM406.879 403.402C407.167 401.685 406.779 400.055 405.582 398.753L402.709 401.395C402.993 401.703 403.144 402.077 403.03 402.757L406.879 403.402ZM405.606 398.78C404.596 397.64 403.301 396.932 401.797 396.68L401.151 400.529C401.792 400.636 402.278 400.908 402.685 401.368L405.606 398.78ZM401.797 396.68C400.442 396.453 399.094 396.568 397.883 397.206L399.702 400.659C399.985 400.51 400.425 400.407 401.151 400.529L401.797 396.68ZM397.896 397.199C396.864 397.733 396.031 398.515 395.411 399.501L398.716 401.578C398.98 401.156 399.301 400.866 399.689 400.666L397.896 397.199ZM395.375 399.562C394.841 400.484 394.488 401.488 394.309 402.558L398.157 403.204C398.264 402.57 398.465 402.014 398.752 401.518L395.375 399.562ZM396.556 400.956L389.365 399.75L388.719 403.599L395.91 404.805L396.556 400.956ZM390.953 402.068C391.43 399.755 392.221 398.091 393.223 396.944L390.284 394.377C388.717 396.171 387.701 398.517 387.131 401.281L390.953 402.068ZM393.234 396.931C394.278 395.715 395.531 394.914 397.027 394.491L395.966 390.736C393.717 391.371 391.808 392.601 390.273 394.389L393.234 396.931ZM397.027 394.491C398.575 394.054 400.35 393.974 402.388 394.316L403.034 390.467C400.53 390.047 398.162 390.115 395.966 390.736L397.027 394.491ZM402.388 394.316C404.886 394.735 406.57 395.499 407.642 396.451L410.234 393.534C408.427 391.928 405.96 390.958 403.034 390.467L402.388 394.316ZM407.675 396.48C408.891 397.512 409.623 398.649 409.972 399.898L413.73 398.847C413.147 396.761 411.937 394.979 410.201 393.505L407.675 396.48ZM409.976 399.913C410.37 401.28 410.449 402.608 410.229 403.916L414.078 404.561C414.398 402.652 414.275 400.735 413.726 398.832L409.976 399.913ZM410.229 403.916C410.011 405.214 409.548 406.322 408.853 407.275L412.007 409.573C413.081 408.099 413.767 406.417 414.078 404.561L410.229 403.916ZM408.831 407.305C408.113 408.331 407.086 409.394 405.702 410.483L408.116 413.55C409.721 412.287 411.04 410.955 412.029 409.543L408.831 407.305ZM405.7 410.484C404.275 411.609 402.524 412.912 400.441 414.396L402.706 417.574C404.822 416.066 406.628 414.724 408.117 413.548L405.7 410.484ZM401.574 415.985C400.441 414.396 400.441 414.396 400.441 414.396C400.441 414.396 400.441 414.396 400.441 414.396C400.441 414.396 400.441 414.396 400.441 414.396C400.441 414.396 400.441 414.396 400.441 414.396C400.441 414.396 400.441 414.396 400.441 414.396C400.441 414.396 400.441 414.396 400.441 414.396C400.441 414.396 400.441 414.396 400.441 414.396C400.441 414.396 400.441 414.396 400.441 414.397C400.44 414.397 400.441 414.396 400.44 414.397C400.439 414.397 400.44 414.397 400.439 414.398C400.435 414.401 400.439 414.397 400.433 414.402C400.432 414.402 400.426 414.407 400.424 414.409C400.417 414.414 400.419 414.412 400.41 414.418C400.404 414.423 400.4 414.426 400.393 414.431C400.389 414.433 400.376 414.443 400.371 414.446C400.364 414.452 400.355 414.458 400.346 414.464C400.337 414.47 400.327 414.477 400.317 414.485C400.315 414.486 400.303 414.494 400.301 414.496C400.279 414.512 400.306 414.492 400.284 414.508C400.241 414.539 400.291 414.503 400.247 414.535C400.208 414.562 400.206 414.564 400.162 414.596C400.114 414.629 400.185 414.579 400.138 414.612C400.074 414.658 400.177 414.585 400.113 414.63C400.089 414.647 400.112 414.631 400.087 414.648C400.058 414.669 400.09 414.647 400.061 414.667C399.997 414.713 400.069 414.661 400.004 414.708C399.982 414.723 400.011 414.702 399.99 414.718C399.972 414.731 399.992 414.716 399.975 414.729C399.941 414.753 399.978 414.726 399.944 414.751L402.209 417.929C402.485 417.732 402.389 417.801 402.582 417.663C402.589 417.658 402.576 417.667 402.584 417.661C402.588 417.659 402.582 417.663 402.586 417.66C402.586 417.66 402.589 417.657 402.589 417.657C402.604 417.647 402.583 417.662 402.597 417.652C402.615 417.64 402.587 417.659 402.604 417.647C402.616 417.639 402.599 417.651 402.611 417.642C402.644 417.618 402.604 417.647 402.636 417.624C402.645 417.618 402.65 417.614 402.658 417.609C402.661 417.606 402.672 417.598 402.675 417.596C402.686 417.589 402.672 417.599 402.682 417.591C402.698 417.58 402.674 417.597 402.689 417.587C402.7 417.578 402.683 417.591 402.694 417.583C402.697 417.581 402.696 417.582 402.698 417.58C402.701 417.578 402.703 417.577 402.704 417.576C402.706 417.575 402.705 417.575 402.706 417.575C402.706 417.574 402.706 417.575 402.706 417.574C402.706 417.574 402.706 417.574 402.706 417.574C402.706 417.574 402.706 417.574 402.706 417.574C402.706 417.574 402.706 417.574 402.706 417.574C402.706 417.574 402.706 417.574 402.706 417.574C402.706 417.574 402.706 417.574 401.574 415.985ZM399.944 414.751C399.613 414.987 399.207 415.276 398.729 415.617L400.994 418.795C401.472 418.454 401.877 418.165 402.209 417.929L399.944 414.751ZM398.729 415.617C398.25 415.958 397.771 416.299 397.292 416.64L399.557 419.818C400.036 419.477 400.515 419.136 400.994 418.795L398.729 415.617ZM397.292 416.64C396.814 416.982 396.408 417.27 396.077 417.507L398.342 420.685C398.673 420.448 399.078 420.16 399.557 419.818L397.292 416.64ZM396.077 417.507C395.966 417.585 395.949 417.597 395.859 417.662C395.811 417.696 395.732 417.753 395.704 417.772C395.653 417.808 395.641 417.817 395.611 417.839C395.589 417.854 395.604 417.843 395.587 417.855C395.587 417.856 395.586 417.856 395.586 417.857C395.585 417.857 395.585 417.857 395.585 417.857C395.585 417.857 395.585 417.857 395.585 417.857C395.585 417.857 395.585 417.857 395.584 417.858C395.584 417.858 395.585 417.857 395.584 417.858C395.583 417.859 395.583 417.859 395.582 417.86C395.576 417.863 395.585 417.857 395.58 417.861C395.58 417.861 395.58 417.861 395.58 417.861C395.58 417.861 395.58 417.861 395.58 417.861C395.58 417.861 395.58 417.861 395.58 417.861C395.58 417.861 395.58 417.861 395.58 417.861C395.58 417.861 395.58 417.861 395.58 417.861C395.58 417.861 395.58 417.861 396.712 419.45C397.845 421.039 397.845 421.039 397.845 421.039C397.845 421.039 397.845 421.039 397.845 421.039C397.845 421.039 397.845 421.039 397.845 421.039C397.845 421.039 397.845 421.039 397.845 421.039C397.845 421.039 397.845 421.039 397.845 421.039C397.845 421.039 397.845 421.039 397.845 421.039C397.845 421.038 397.845 421.039 397.845 421.038C397.847 421.037 397.844 421.039 397.846 421.038C397.846 421.038 397.846 421.038 397.846 421.038C397.846 421.038 397.846 421.038 397.846 421.038C397.851 421.034 397.841 421.041 397.847 421.038C397.847 421.037 397.85 421.035 397.852 421.033C397.858 421.03 397.856 421.031 397.862 421.026C397.863 421.026 397.867 421.023 397.868 421.022C397.895 421.003 397.849 421.036 397.876 421.017C397.883 421.012 397.902 420.998 397.915 420.989C397.925 420.981 397.928 420.98 397.94 420.971C397.952 420.962 397.955 420.96 397.969 420.95C397.969 420.95 398.104 420.854 398.124 420.84C398.168 420.809 398.177 420.802 398.225 420.768C398.249 420.751 398.313 420.705 398.342 420.685L396.077 417.507ZM396.389 421.374L409.541 423.581L410.187 419.732L397.035 417.526L396.389 421.374ZM407.939 421.333L406.868 427.72L410.717 428.366L411.788 421.979L407.939 421.333ZM409.115 426.118L385.651 422.182L385.005 426.031L408.47 429.967L409.115 426.118ZM414.279 418.117L412.355 417.794L412.032 419.718L413.956 420.041L414.279 418.117ZM415.319 411.919L415.642 409.995L413.717 409.672L413.394 411.597L415.319 411.919ZM428.423 414.118L430.347 414.441L430.67 412.516L428.746 412.193L428.423 414.118ZM427.383 420.315L427.061 422.239L428.985 422.562L429.308 420.638L427.383 420.315ZM416.204 418.44L417.243 412.242L413.394 411.597L412.355 417.794L416.204 418.44ZM414.996 413.844L428.1 416.042L428.746 412.193L415.642 409.995L414.996 413.844ZM426.499 413.795L425.459 419.992L429.308 420.638L430.347 414.441L426.499 413.795ZM427.706 418.391L414.602 416.192L413.956 420.041L427.061 422.239L427.706 418.391ZM434.362 430.581L432.886 431.858L434.362 430.581ZM431.42 423.765L429.488 424.039L431.42 423.765ZM434.34 406.355L432.604 405.466L434.34 406.355ZM453.877 403.261L452.404 404.54L452.409 404.547L452.415 404.553L453.877 403.261ZM456.827 410.03L454.895 410.304L456.827 410.03ZM453.875 427.629L452.138 426.74L453.875 427.629ZM448.877 433.065L447.917 431.367L447.909 431.371L447.902 431.375L448.877 433.065ZM446.583 425.287L448.229 426.335L448.235 426.325L446.583 425.287ZM449.162 409.912L447.262 410.354L447.264 410.365L449.162 409.912ZM441.64 408.65L440.003 407.589L439.999 407.595L439.994 407.602L441.64 408.65ZM439.061 424.025L437.161 424.467L437.165 424.487L437.17 424.506L439.061 424.025ZM441.589 432.15C438.884 431.696 437.042 430.696 435.838 429.305L432.886 431.858C434.833 434.108 437.594 435.437 440.944 435.999L441.589 432.15ZM435.838 429.305C434.541 427.806 433.693 425.898 433.352 423.491L429.488 424.039C429.919 427.079 431.032 429.715 432.886 431.858L435.838 429.305ZM433.352 423.491C432.998 420.998 433.062 418.232 433.574 415.176L429.726 414.531C429.159 417.909 429.069 421.084 429.488 424.039L433.352 423.491ZM433.574 415.176C434.087 412.121 434.93 409.486 436.077 407.245L432.604 405.466C431.243 408.122 430.292 411.152 429.726 414.531L433.574 415.176ZM436.077 407.245C437.185 405.081 438.61 403.554 440.324 402.56L438.368 399.184C435.916 400.604 434.003 402.733 432.604 405.466L436.077 407.245ZM440.324 402.56C441.917 401.638 443.984 401.294 446.689 401.748L447.335 397.899C443.985 397.337 440.942 397.692 438.368 399.184L440.324 402.56ZM446.689 401.748C449.406 402.204 451.231 403.19 452.404 404.54L455.351 401.982C453.426 399.765 450.674 398.459 447.335 397.899L446.689 401.748ZM452.415 404.553C453.706 406.014 454.555 407.9 454.895 410.304L458.759 409.757C458.328 406.714 457.21 404.086 455.34 401.969L452.415 404.553ZM454.895 410.304C455.248 412.794 455.181 415.591 454.657 418.713L458.506 419.359C459.082 415.921 459.179 412.715 458.759 409.757L454.895 410.304ZM454.657 418.713C454.133 421.836 453.284 424.502 452.138 426.74L455.612 428.518C456.974 425.859 457.929 422.796 458.506 419.359L454.657 418.713ZM452.138 426.74C451.031 428.902 449.614 430.407 447.917 431.367L449.838 434.763C452.297 433.373 454.211 431.254 455.612 428.518L452.138 426.74ZM447.902 431.375C446.353 432.269 444.306 432.606 441.589 432.15L440.944 435.999C444.282 436.559 447.309 436.223 449.853 434.755L447.902 431.375ZM442.055 429.376C443.279 429.581 444.488 429.431 445.599 428.859C446.686 428.3 447.547 427.406 448.229 426.335L444.937 424.239C444.518 424.897 444.128 425.228 443.813 425.389C443.523 425.539 443.179 425.607 442.7 425.527L442.055 429.376ZM448.235 426.325C449.535 424.257 450.418 421.468 450.984 418.097L447.135 417.451C446.611 420.577 445.843 422.797 444.931 424.249L448.235 426.325ZM450.984 418.097C451.549 414.729 451.623 411.814 451.06 409.458L447.264 410.365C447.654 411.996 447.66 414.323 447.135 417.451L450.984 418.097ZM451.063 409.47C450.773 408.223 450.257 407.085 449.415 406.19C448.553 405.274 447.456 404.729 446.224 404.522L445.578 408.371C446.049 408.45 446.348 408.625 446.573 408.864C446.818 409.125 447.081 409.576 447.262 410.354L451.063 409.47ZM446.224 404.522C444.991 404.315 443.778 404.473 442.662 405.05C441.572 405.614 440.701 406.512 440.003 407.589L443.278 409.711C443.717 409.033 444.125 408.687 444.455 408.516C444.76 408.359 445.108 408.292 445.578 408.371L446.224 404.522ZM439.994 407.602C438.694 409.645 437.813 412.424 437.248 415.793L441.096 416.438C441.621 413.31 442.386 411.112 443.286 409.698L439.994 407.602ZM437.248 415.793C436.682 419.164 436.607 422.088 437.161 424.467L440.962 423.583C440.573 421.913 440.572 419.564 441.096 416.438L437.248 415.793ZM437.17 424.506C437.483 425.739 438.019 426.86 438.869 427.738C439.737 428.634 440.83 429.17 442.055 429.376L442.7 425.527C442.222 425.447 441.91 425.268 441.673 425.023C441.417 424.759 441.147 424.309 440.952 423.544L437.17 424.506ZM457.804 436.265L455.88 435.942L455.557 437.867L457.482 438.189L457.804 436.265ZM458.884 429.831L459.207 427.907L457.282 427.584L456.959 429.508L458.884 429.831ZM466.926 431.18L466.603 433.105L468.528 433.428L468.85 431.503L466.926 431.18ZM470.021 412.73L471.946 413.053L472.336 410.726L469.977 410.779L470.021 412.73ZM462.111 412.911L460.187 412.588L459.796 414.916L462.156 414.862L462.111 412.911ZM463.095 407.045L462.753 405.124L461.399 405.366L461.171 406.722L463.095 407.045ZM474.477 405.015L474.8 403.09L474.467 403.034L474.134 403.094L474.477 405.015ZM478.404 405.673L480.328 405.996L480.651 404.072L478.727 403.749L478.404 405.673ZM473.928 432.355L472.003 432.032L471.68 433.956L473.605 434.279L473.928 432.355ZM481.308 433.593L483.232 433.916L483.555 431.991L481.63 431.669L481.308 433.593ZM480.228 440.027L479.905 441.951L481.83 442.274L482.153 440.35L480.228 440.027ZM459.729 436.588L460.808 430.154L456.959 429.508L455.88 435.942L459.729 436.588ZM458.561 431.756L466.603 433.105L467.249 429.256L459.207 427.907L458.561 431.756ZM468.85 431.503L471.946 413.053L468.097 412.407L465.002 430.857L468.85 431.503ZM469.977 410.779L462.067 410.96L462.156 414.862L470.066 414.681L469.977 410.779ZM464.036 413.234L465.02 407.368L461.171 406.722L460.187 412.588L464.036 413.234ZM463.438 408.966L474.82 406.936L474.134 403.094L462.753 405.124L463.438 408.966ZM474.154 406.939L478.081 407.598L478.727 403.749L474.8 403.09L474.154 406.939ZM476.479 405.35L472.003 432.032L475.852 432.678L480.328 405.996L476.479 405.35ZM473.605 434.279L480.985 435.517L481.63 431.669L474.25 430.431L473.605 434.279ZM479.383 433.27L478.304 439.704L482.153 440.35L483.232 433.916L479.383 433.27ZM480.551 438.102L458.127 434.341L457.482 438.189L479.905 441.951L480.551 438.102Z" fill="white" mask="url(#path-7-outside-4_293_3683)"/>
</g>
<defs>
<filter id="filter0_d_293_3683" x="6.11797" y="46.6476" width="395.921" height="228.621" filterUnits="userSpaceOnUse" color-interpolation-filters="sRGB">
<feFlood flood-opacity="0" result="BackgroundImageFix"/>
<feColorMatrix in="SourceAlpha" type="matrix" values="0 0 0 0 0 0 0 0 0 0 0 0 0 0 0 0 0 0 127 0" result="hardAlpha"/>
<feOffset dx="-7" dy="21"/>
<feGaussianBlur stdDeviation="1.9"/>
<feComposite in2="hardAlpha" operator="out"/>
<feColorMatrix type="matrix" values="0 0 0 0 0 0 0 0 0 0 0 0 0 0 0 0 0 0 0.09 0"/>
<feBlend mode="normal" in2="BackgroundImageFix" result="effect1_dropShadow_293_3683"/>
<feBlend mode="normal" in="SourceGraphic" in2="effect1_dropShadow_293_3683" result="shape"/>
</filter>
<filter id="filter1_d_293_3683" x="139.868" y="184.418" width="397.339" height="208.764" filterUnits="userSpaceOnUse" color-interpolation-filters="sRGB">
<feFlood flood-opacity="0" result="BackgroundImageFix"/>
<feColorMatrix in="SourceAlpha" type="matrix" values="0 0 0 0 0 0 0 0 0 0 0 0 0 0 0 0 0 0 127 0" result="hardAlpha"/>
<feOffset dx="-7" dy="21"/>
<feGaussianBlur stdDeviation="1.9"/>
<feComposite in2="hardAlpha" operator="out"/>
<feColorMatrix type="matrix" values="0 0 0 0 0 0 0 0 0 0 0 0 0 0 0 0 0 0 0.09 0"/>
<feBlend mode="normal" in2="BackgroundImageFix" result="effect1_dropShadow_293_3683"/>
<feBlend mode="normal" in="SourceGraphic" in2="effect1_dropShadow_293_3683" result="shape"/>
</filter>
<filter id="filter2_d_293_3683" x="93.6766" y="312.685" width="243.57" height="190.098" filterUnits="userSpaceOnUse" color-interpolation-filters="sRGB">
<feFlood flood-opacity="0" result="BackgroundImageFix"/>
<feColorMatrix in="SourceAlpha" type="matrix" values="0 0 0 0 0 0 0 0 0 0 0 0 0 0 0 0 0 0 127 0" result="hardAlpha"/>
<feOffset dx="-7" dy="21"/>
<feGaussianBlur stdDeviation="1.9"/>
<feComposite in2="hardAlpha" operator="out"/>
<feColorMatrix type="matrix" values="0 0 0 0 0 0 0 0 0 0 0 0 0 0 0 0 0 0 0.09 0"/>
<feBlend mode="normal" in2="BackgroundImageFix" result="effect1_dropShadow_293_3683"/>
<feBlend mode="normal" in="SourceGraphic" in2="effect1_dropShadow_293_3683" result="shape"/>
</filter>
<filter id="filter3_d_293_3683" x="357.686" y="386.244" width="128.193" height="60.3993" filterUnits="userSpaceOnUse" color-interpolation-filters="sRGB">
<feFlood flood-opacity="0" result="BackgroundImageFix"/>
<feColorMatrix in="SourceAlpha" type="matrix" values="0 0 0 0 0 0 0 0 0 0 0 0 0 0 0 0 0 0 127 0" result="hardAlpha"/>
<feOffset dx="-1.70737" dy="5.12211"/>
<feGaussianBlur stdDeviation="0.463429"/>
<feComposite in2="hardAlpha" operator="out"/>
<feColorMatrix type="matrix" values="0 0 0 0 0 0 0 0 0 0 0 0 0 0 0 0 0 0 0.09 0"/>
<feBlend mode="normal" in2="BackgroundImageFix" result="effect1_dropShadow_293_3683"/>
<feBlend mode="normal" in="SourceGraphic" in2="effect1_dropShadow_293_3683" result="shape"/>
</filter>
</defs>
</svg>
