<svg width="20" height="20" viewBox="0 0 20 20" fill="none" xmlns="http://www.w3.org/2000/svg">
<g clip-path="url(#clip0_476_3706)">
<path d="M14.6084 12.1721C14.6084 13.0121 14.8474 13.3471 15.4724 13.3471C16.8654 13.3471 17.7524 11.5721 17.7524 8.62013C17.7524 4.10813 14.4644 1.94813 10.3594 1.94813C6.13644 1.94813 2.29544 4.78013 2.29544 10.1321C2.29544 15.2441 5.65544 18.0281 10.8154 18.0281C12.5674 18.0281 13.7434 17.8361 15.5424 17.2361L15.9284 18.8431C14.1524 19.4201 12.2544 19.5871 10.7914 19.5871C4.02344 19.5871 0.398438 15.8671 0.398438 10.1311C0.398438 4.34713 4.59944 0.411133 10.3834 0.411133C16.4074 0.411133 19.5984 4.01113 19.5984 8.42713C19.5984 12.1711 18.4234 15.0271 14.7274 15.0271C13.0464 15.0271 11.9434 14.3551 11.7994 12.8661C11.3674 14.5221 10.2154 15.0271 8.65444 15.0271C6.56644 15.0271 4.81444 13.4181 4.81444 10.1791C4.81444 6.91513 6.35144 4.89913 9.11144 4.89913C10.5754 4.89913 11.4874 5.47513 11.8934 6.38713L12.5904 5.11513H14.6064V12.1721H14.6084ZM11.6574 9.00413C11.6574 7.68513 10.6724 7.13213 9.85644 7.13213C8.96844 7.13213 7.98544 7.85113 7.98544 9.96413C7.98544 11.6441 8.72944 12.5801 9.85644 12.5801C10.6484 12.5801 11.6574 12.0761 11.6574 10.6841V9.00413Z" fill="#AC4185"/>
</g>
<defs>
<clipPath id="clip0_476_3706">
<rect width="20" height="20" fill="white"/>
</clipPath>
</defs>
</svg>
