<svg width="100" height="101" viewBox="0 0 100 101" fill="none" xmlns="http://www.w3.org/2000/svg">
<path d="M33.6247 42.1664C32.7531 36.1257 33.7984 29.9637 36.6134 24.5484C39.4284 19.1331 43.8713 14.7373 49.3163 11.9802C54.7613 9.22302 60.9341 8.24343 66.9651 9.17937C72.9962 10.1153 78.5817 12.9196 82.935 17.1974C87.2883 21.4751 90.19 27.0107 91.2313 33.0244C92.2727 39.0382 91.4013 45.2271 88.7399 50.7196C86.0785 56.212 81.7612 60.7312 76.396 63.6406C71.0308 66.55 64.8881 67.703 58.833 66.9372" stroke="#AC4185" stroke-width="6.875" stroke-linecap="round" stroke-linejoin="round"/>
<path d="M78.6163 42.1667C80.0122 36.7083 78.7205 29.7417 74.9997 25.5M8.33301 80.0708L42.6038 48.6542M42.6038 48.6542C48.6538 47.8083 52.5205 51.8417 52.5205 57.1625M42.6038 48.6542L52.5205 39.5625C53.6536 38.5332 55.1394 37.9795 56.6697 38.0162C58.2001 38.0529 59.6576 38.6772 60.74 39.7596C61.8225 40.8421 62.4468 42.2996 62.4835 43.83C62.5202 45.3603 61.9665 46.8461 60.9372 47.9792L52.5205 57.1625M20.4288 92.1667L52.5205 57.1625" stroke="#AC4185" stroke-width="6.875" stroke-linecap="round" stroke-linejoin="round"/>
</svg>
