<svg width="24" height="24" viewBox="0 0 24 24" fill="none" xmlns="http://www.w3.org/2000/svg">
<path d="M13.2202 8.2804C13.1465 8.21174 13.0874 8.12894 13.0464 8.03694C13.0054 7.94494 12.9834 7.84562 12.9816 7.74492C12.9798 7.64422 12.9983 7.54419 13.036 7.4508C13.0738 7.35741 13.1299 7.27258 13.2011 7.20136C13.2724 7.13014 13.3572 7.074 13.4506 7.03627C13.544 6.99855 13.644 6.98003 13.7447 6.98181C13.8454 6.98358 13.9447 7.00562 14.0367 7.04662C14.1287 7.08761 14.2115 7.14671 14.2802 7.2204L18.2802 11.2204C18.4206 11.361 18.4995 11.5516 18.4995 11.7504C18.4995 11.9491 18.4206 12.1398 18.2802 12.2804L14.2802 16.2804C14.2115 16.3541 14.1287 16.4132 14.0367 16.4542C13.9447 16.4952 13.8454 16.5172 13.7447 16.519C13.644 16.5208 13.544 16.5022 13.4506 16.4645C13.3572 16.4268 13.2724 16.3707 13.2011 16.2994C13.1299 16.2282 13.0738 16.1434 13.036 16.05C12.9983 15.9566 12.9798 15.8566 12.9816 15.7559C12.9834 15.6552 13.0054 15.5559 13.0464 15.4639C13.0874 15.3719 13.1465 15.2891 13.2202 15.2204L15.9402 12.5004H6.25017C6.05126 12.5004 5.86049 12.4214 5.71984 12.2807C5.57919 12.1401 5.50017 11.9493 5.50017 11.7504C5.50017 11.5515 5.57919 11.3607 5.71984 11.2201C5.86049 11.0794 6.05126 11.0004 6.25017 11.0004H15.9402L13.2202 8.2804Z" fill="#AC4185"/>
</svg>
