<svg width="20" height="20" viewBox="0 0 20 20" fill="none" xmlns="http://www.w3.org/2000/svg">
<path d="M11.667 18.3332V6.6665M11.667 18.3332H6.66699C4.31033 18.3332 3.13116 18.3332 2.39949 17.6007C1.66699 16.869 1.66699 15.6898 1.66699 13.3332V6.6665C1.66699 4.30984 1.66699 3.13067 2.39949 2.399C3.13116 1.6665 4.31033 1.6665 6.66699 1.6665C9.02366 1.6665 10.2028 1.6665 10.9345 2.399C11.667 3.13067 11.667 4.30984 11.667 6.6665M11.667 18.3332H15.0003C16.572 18.3332 17.357 18.3332 17.8453 17.8448C18.3337 17.3565 18.3337 16.5715 18.3337 14.9998V9.99984C18.3337 8.42817 18.3337 7.64317 17.8453 7.15484C17.357 6.6665 16.572 6.6665 15.0003 6.6665H11.667M5.41699 9.1665H4.58366M8.75033 9.1665H7.91699M5.41699 5.83317H4.58366M5.41699 12.4998H4.58366M8.75033 5.83317H7.91699M8.75033 12.4998H7.91699M15.417 12.4998H14.5837M15.417 9.1665H14.5837" stroke="#AC4185" stroke-width="1.25" stroke-linecap="round" stroke-linejoin="round"/>
</svg>
