<svg width="36" height="28" viewBox="0 0 36 28" fill="none" xmlns="http://www.w3.org/2000/svg">
<path opacity="0.2" d="M14.25 20.25C14.25 21.4861 13.8834 22.6945 13.1967 23.7223C12.5099 24.7501 11.5338 25.5512 10.3918 26.0242C9.24974 26.4973 7.99307 26.6211 6.78069 26.3799C5.56831 26.1388 4.45466 25.5435 3.58059 24.6694C2.70651 23.7953 2.11125 22.6817 1.87009 21.4693C1.62894 20.2569 1.75271 19.0003 2.22576 17.8582C2.6988 16.7162 3.49988 15.7401 4.52769 15.0533C5.5555 14.3666 6.76387 14 8 14C9.65761 14 11.2473 14.6585 12.4194 15.8306C13.5915 17.0027 14.25 18.5924 14.25 20.25ZM28 14C26.7639 14 25.5555 14.3666 24.5277 15.0533C23.4999 15.7401 22.6988 16.7162 22.2258 17.8582C21.7527 19.0003 21.6289 20.2569 21.8701 21.4693C22.1113 22.6817 22.7065 23.7953 23.5806 24.6694C24.4547 25.5435 25.5683 26.1388 26.7807 26.3799C27.9931 26.6211 29.2497 26.4973 30.3918 26.0242C31.5338 25.5512 32.5099 24.7501 33.1967 23.7223C33.8834 22.6945 34.25 21.4861 34.25 20.25C34.25 18.5924 33.5915 17.0027 32.4194 15.8306C31.2473 14.6585 29.6576 14 28 14Z" fill="#AC4185"/>
<path d="M35.0625 17.7297C34.9582 17.4384 34.8355 17.154 34.6953 16.8781L28.1969 2.09375C28.1355 1.95132 28.0474 1.82192 27.9375 1.7125C27.4732 1.24809 26.9219 0.879688 26.3152 0.628343C25.7085 0.376999 25.0583 0.247632 24.4016 0.247632C23.7449 0.247632 23.0946 0.376999 22.4879 0.628343C21.8812 0.879688 21.3299 1.24809 20.8656 1.7125C20.632 1.94636 20.5006 2.26321 20.5 2.59375V6.5H15.5V2.59375C15.5001 2.42955 15.4679 2.26693 15.4052 2.11519C15.3424 1.96345 15.2504 1.82555 15.1344 1.70938C14.6701 1.24496 14.1188 0.876563 13.5121 0.625218C12.9054 0.373873 12.2551 0.244507 11.5984 0.244507C10.9417 0.244507 10.2915 0.373873 9.68476 0.625218C9.07805 0.876563 8.52681 1.24496 8.0625 1.70938C7.95257 1.8188 7.86454 1.9482 7.80313 2.09063L1.30469 16.875C1.16447 17.1508 1.04183 17.4353 0.937501 17.7266C0.569532 18.7562 0.431124 19.8537 0.531973 20.9424C0.632822 22.0312 0.970489 23.0846 1.52132 24.0291C2.07215 24.9736 2.82282 25.7862 3.72075 26.4101C4.61868 27.0339 5.64215 27.4539 6.71946 27.6405C7.79677 27.8272 8.90187 27.7761 9.95735 27.4908C11.0128 27.2054 11.9931 26.6927 12.8296 25.9887C13.6661 25.2846 14.3386 24.4061 14.7999 23.4148C15.2611 22.4235 15.5001 21.3434 15.5 20.25V9H20.5V20.25C20.4994 21.3435 20.738 22.4239 21.199 23.4155C21.66 24.4071 22.3322 25.2859 23.1686 25.9903C24.0049 26.6947 24.9852 27.2077 26.0408 27.4934C27.0963 27.779 28.2015 27.8304 29.279 27.6439C30.3565 27.4575 31.3802 27.0376 32.2783 26.4138C33.1764 25.7901 33.9273 24.9774 34.4783 24.0329C35.0293 23.0884 35.3671 22.0348 35.468 20.946C35.5689 19.8571 35.4305 18.7594 35.0625 17.7297ZM9.98594 3.33594C10.4027 2.98504 10.9227 2.77988 11.4667 2.75167C12.0108 2.72347 12.5492 2.87376 13 3.17969V14.6656C12.0241 13.7893 10.835 13.1848 9.55184 12.9128C8.26872 12.6408 6.93664 12.7107 5.68906 13.1156L9.98594 3.33594ZM8 25.25C7.01109 25.25 6.0444 24.9568 5.22215 24.4074C4.3999 23.8579 3.75904 23.077 3.3806 22.1634C3.00217 21.2498 2.90315 20.2445 3.09607 19.2746C3.289 18.3046 3.7652 17.4137 4.46447 16.7145C5.16373 16.0152 6.05464 15.539 7.02455 15.3461C7.99445 15.1531 8.99979 15.2522 9.91342 15.6306C10.827 16.009 11.6079 16.6499 12.1573 17.4722C12.7068 18.2944 13 19.2611 13 20.25C13 21.5761 12.4732 22.8479 11.5355 23.7855C10.5979 24.7232 9.32608 25.25 8 25.25ZM23 3.17813C23.4508 2.8722 23.9892 2.7219 24.5333 2.75011C25.0773 2.77831 25.5973 2.98347 26.0141 3.33438L30.3109 13.1125C29.0632 12.7078 27.7311 12.6381 26.4479 12.9104C25.1648 13.1827 23.9758 13.7875 23 14.6641V3.17813ZM28 25.25C27.0111 25.25 26.0444 24.9568 25.2221 24.4074C24.3999 23.8579 23.759 23.077 23.3806 22.1634C23.0022 21.2498 22.9031 20.2445 23.0961 19.2746C23.289 18.3046 23.7652 17.4137 24.4645 16.7145C25.1637 16.0152 26.0546 15.539 27.0245 15.3461C27.9945 15.1531 28.9998 15.2522 29.9134 15.6306C30.827 16.009 31.6079 16.6499 32.1573 17.4722C32.7068 18.2944 33 19.2611 33 20.25C33 21.5761 32.4732 22.8479 31.5355 23.7855C30.5979 24.7232 29.3261 25.25 28 25.25Z" fill="#AC4185"/>
</svg>
