<svg width="100" height="101" viewBox="0 0 100 101" fill="none" xmlns="http://www.w3.org/2000/svg">
<path d="M50 14.25C50 13.6584 50 13.3584 50.1917 13.175C50.3792 12.9917 50.6708 13 51.25 13.0209C59.3895 13.2915 67.2197 16.2046 73.5569 21.3198C79.8942 26.4349 84.3939 33.4741 86.3761 41.3732C88.3582 49.2724 87.715 57.6021 84.5435 65.1032C81.3721 72.6044 75.845 78.8692 68.7975 82.9508C61.7501 87.0323 53.5655 88.7087 45.4809 87.7264C37.3963 86.7442 29.8512 83.1568 23.9862 77.5064C18.1211 71.8561 14.2549 64.45 12.9719 56.4077C11.689 48.3653 13.059 40.1239 16.875 32.9292C17.1417 32.4167 17.2792 32.1625 17.5333 32.0875C17.7875 32.0125 18.0458 32.1625 18.5583 32.4584L41.6708 45.7209C42.1625 46.0042 42.4083 46.1417 42.4875 46.3625C42.5625 46.5834 42.4458 46.8792 42.2167 47.4709C41.5884 49.0842 41.4768 50.8528 41.8974 52.5322C42.318 54.2117 43.25 55.7189 44.5645 56.8456C45.879 57.9724 47.5111 58.6628 49.2351 58.8216C50.9591 58.9804 52.6899 58.5996 54.1881 57.732C55.6863 56.8643 56.8779 55.5526 57.5982 53.9782C58.3184 52.4039 58.5318 50.6446 58.2087 48.9437C57.8856 47.2428 57.0421 45.6843 55.7947 44.4837C54.5474 43.2831 52.9578 42.4996 51.2458 42.2417C50.6167 42.1459 50.3042 42.1 50.15 41.925C50 41.75 50 41.4667 50 40.9V14.25Z" fill="#AC4185" fill-opacity="0.25"/>
<path d="M36.0418 74.6751C35.7459 75.1917 35.5959 75.4501 35.6668 75.7042C35.7459 75.9584 36.0001 76.0959 36.5126 76.3626C40.3858 78.3829 44.6633 79.5073 49.0292 79.653C53.3952 79.7986 57.7381 78.9616 61.7373 77.2039C65.7364 75.4462 69.2897 72.8127 72.1347 69.4977C74.9797 66.1827 77.0437 62.2711 78.1743 58.0515C79.305 53.832 79.4734 49.4124 78.6671 45.119C77.8608 40.8257 76.1004 36.7683 73.5159 33.2465C70.9314 29.7246 67.5888 26.8283 63.735 24.7714C59.8811 22.7145 55.6145 21.5496 51.2501 21.3626C50.6751 21.3376 50.3834 21.3209 50.1918 21.5084C50.0001 21.6917 50.0001 21.9876 50.0001 22.5834V40.9251C50.0001 41.4917 50.0001 41.7751 50.1501 41.9501C50.3043 42.1292 50.6168 42.1751 51.2459 42.2709C52.403 42.448 53.5098 42.8668 54.4942 43.5002C55.4786 44.1335 56.3185 44.9671 56.9593 45.9467C57.6 46.9263 58.0272 48.0299 58.213 49.1856C58.3988 50.3413 58.339 51.5232 58.0376 52.6542C57.7348 53.7857 57.1966 54.8405 56.4581 55.7496C55.7196 56.6587 54.7975 57.4017 53.752 57.9299C52.7066 58.4581 51.5615 58.7597 50.3915 58.8149C49.2215 58.87 48.0531 58.6776 46.9626 58.2501C46.3709 58.0167 46.0751 57.9042 45.8584 57.9792C45.6418 58.0542 45.4959 58.3001 45.2126 58.7917L36.0418 74.6751Z" fill="#AC4185"/>
</svg>
