<svg width="24" height="24" viewBox="0 0 24 24" fill="none" xmlns="http://www.w3.org/2000/svg">
<path d="M9.97303 8.68075C9.8738 8.69795 9.77211 8.69499 9.67404 8.67204C9.57597 8.64909 9.48353 8.60662 9.40223 8.54717C9.32093 8.48772 9.25244 8.4125 9.20084 8.326C9.14924 8.2395 9.11559 8.1435 9.1019 8.04372C9.08821 7.94393 9.09476 7.84241 9.12115 7.74522C9.14755 7.64802 9.19325 7.55713 9.25554 7.47798C9.31782 7.39883 9.39541 7.33303 9.48367 7.28452C9.57194 7.236 9.66907 7.20576 9.76927 7.1956L15.3736 6.42668C15.5705 6.39979 15.7701 6.45216 15.9284 6.57229C16.0868 6.69242 16.1909 6.87049 16.2181 7.06737L16.987 12.6717C17.0042 12.771 17.0012 12.8727 16.9783 12.9707C16.9553 13.0688 16.9129 13.1612 16.8534 13.2425C16.794 13.3238 16.7187 13.3923 16.6322 13.4439C16.5458 13.4955 16.4497 13.5292 16.35 13.5429C16.2502 13.5565 16.1487 13.55 16.0515 13.5236C15.9543 13.4972 15.8634 13.4515 15.7842 13.3892C15.7051 13.3269 15.6393 13.2494 15.5908 13.1611C15.5422 13.0728 15.512 12.9757 15.5018 12.8755L14.979 9.06453L9.12206 16.7842C9.00183 16.9426 8.82358 17.0468 8.62651 17.0739C8.42945 17.1009 8.22971 17.0486 8.07125 16.9283C7.91278 16.8081 7.80857 16.6298 7.78153 16.4328C7.75449 16.2357 7.80685 16.036 7.92707 15.8775L13.784 8.15789L9.97303 8.68075Z" fill="white"/>
</svg>
