<svg width="36" height="39" viewBox="0 0 36 39" fill="none" xmlns="http://www.w3.org/2000/svg">
<rect width="36" height="38" transform="translate(0 0.5)" fill="#FCF7FA"/>
<path d="M14.6667 19.2917V15.7501C14.6667 15.4029 14.7883 15.1079 15.0317 14.8651C15.275 14.6223 15.57 14.5006 15.9167 14.5001C16.2633 14.4995 16.5586 14.6212 16.8025 14.8651C17.0464 15.109 17.1678 15.404 17.1667 15.7501V19.2917C17.1667 19.639 17.0453 19.9342 16.8025 20.1776C16.5597 20.4209 16.2644 20.5423 15.9167 20.5417C15.5689 20.5412 15.2739 20.4198 15.0317 20.1776C14.7894 19.9354 14.6678 19.6401 14.6667 19.2917ZM18.8333 19.1042V12.4167C18.8333 12.0695 18.955 11.7745 19.1983 11.5317C19.4417 11.289 19.7367 11.1673 20.0833 11.1667C20.43 11.1662 20.7253 11.2879 20.9692 11.5317C21.2131 11.7756 21.3344 12.0706 21.3333 12.4167V19.1042C21.3333 19.5209 21.205 19.8334 20.9483 20.0417C20.6917 20.2501 20.4033 20.3542 20.0833 20.3542C19.7633 20.3542 19.4753 20.2501 19.2192 20.0417C18.9631 19.8334 18.8344 19.5209 18.8333 19.1042ZM10.5 21.9792V19.0834C10.5 18.7362 10.6217 18.4412 10.865 18.1984C11.1083 17.9556 11.4033 17.834 11.75 17.8334C12.0967 17.8329 12.3919 17.9545 12.6358 18.1984C12.8797 18.4423 13.0011 18.7373 13 19.0834V21.9792C13 22.3959 12.8717 22.7084 12.615 22.9167C12.3583 23.1251 12.07 23.2292 11.75 23.2292C11.43 23.2292 11.1419 23.1251 10.8858 22.9167C10.6297 22.7084 10.5011 22.3959 10.5 21.9792ZM12.5 27.0417C12.1389 27.0417 11.8853 26.8717 11.7392 26.5317C11.5931 26.1917 11.6522 25.8895 11.9167 25.6251L15.3333 22.2084C15.4861 22.0556 15.6703 21.9723 15.8858 21.9584C16.1014 21.9445 16.2922 22.014 16.4583 22.1667L18.8333 24.2084L23.5 19.5417H23C22.7639 19.5417 22.5661 19.4617 22.4067 19.3017C22.2472 19.1417 22.1672 18.944 22.1667 18.7084C22.1661 18.4729 22.2461 18.2751 22.4067 18.1151C22.5672 17.9551 22.765 17.8751 23 17.8751H25.5C25.7361 17.8751 25.9342 17.9551 26.0942 18.1151C26.2542 18.2751 26.3339 18.4729 26.3333 18.7084V21.2084C26.3333 21.4445 26.2533 21.6426 26.0933 21.8026C25.9333 21.9626 25.7356 22.0423 25.5 22.0417C25.2644 22.0412 25.0667 21.9612 24.9067 21.8017C24.7467 21.6423 24.6667 21.4445 24.6667 21.2084V20.7084L19.4583 25.9167C19.3056 26.0695 19.1214 26.1529 18.9058 26.1667C18.6903 26.1806 18.4994 26.1112 18.3333 25.9584L15.9583 23.9167L13.0833 26.7917C13.0139 26.8612 12.9272 26.9204 12.8233 26.9692C12.7194 27.0181 12.6117 27.0423 12.5 27.0417Z" fill="#C51077"/>
</svg>
