<svg width="36" height="39" viewBox="0 0 36 39" fill="none" xmlns="http://www.w3.org/2000/svg">
<rect width="36" height="38" transform="translate(0 0.5)" fill="#FCF7FA"/>
<path d="M26.3346 27.8333H9.66797M9.66797 18.6667L13.0538 15.9583M26.3346 18.6667L19.563 13.25C19.1197 12.8954 18.5689 12.7022 18.0013 12.7022C17.4337 12.7022 16.8829 12.8954 16.4396 13.25L15.788 13.7708M20.918 14.0833V12.4167C20.918 12.3062 20.9619 12.2002 21.04 12.122C21.1181 12.0439 21.2241 12 21.3346 12H23.418C23.5285 12 23.6345 12.0439 23.7126 12.122C23.7907 12.2002 23.8346 12.3062 23.8346 12.4167V16.5833M11.3346 27.8333V17.4167M24.668 17.4167V20.75M24.668 27.8333V24.0833" stroke="#864C27" stroke-width="1.25" stroke-linecap="round"/>
<path d="M20.5 27.8334V23.6667C20.5 22.4884 20.5 21.8992 20.1333 21.5334C19.7683 21.1667 19.1792 21.1667 18 21.1667C16.8208 21.1667 16.2325 21.1667 15.8667 21.5334M15.5 27.8334V23.6667" stroke="#864C27" stroke-width="1.25" stroke-linecap="round" stroke-linejoin="round"/>
<path d="M19.6693 17.4167C19.6693 17.8587 19.4937 18.2826 19.1811 18.5952C18.8686 18.9077 18.4446 19.0833 18.0026 19.0833C17.5606 19.0833 17.1367 18.9077 16.8241 18.5952C16.5115 18.2826 16.3359 17.8587 16.3359 17.4167C16.3359 16.9746 16.5115 16.5507 16.8241 16.2382C17.1367 15.9256 17.5606 15.75 18.0026 15.75C18.4446 15.75 18.8686 15.9256 19.1811 16.2382C19.4937 16.5507 19.6693 16.9746 19.6693 17.4167Z" stroke="#864C27" stroke-width="1.25"/>
</svg>
