<svg width="36" height="39" viewBox="0 0 36 39" fill="none" xmlns="http://www.w3.org/2000/svg">
<rect width="36" height="38" transform="translate(0 0.5)" fill="#FEF1F8"/>
<path d="M11.75 12.9375V13.25H12.375C12.5408 13.25 12.6997 13.1842 12.8169 13.0669C12.9342 12.9497 13 12.7908 13 12.625V12H12.6875C12.4389 12 12.2004 12.0988 12.0246 12.2746C11.8488 12.4504 11.75 12.6889 11.75 12.9375ZM12.6875 10.75H18.3125C19.52 10.75 20.5 11.73 20.5 12.9375V13.6163L24.2188 17.335C24.625 17.7413 24.9472 18.2236 25.1671 18.7544C25.3869 19.2853 25.5 19.8542 25.5 20.4288V27.625C25.5 27.7908 25.4342 27.9497 25.3169 28.0669C25.1997 28.1842 25.0408 28.25 24.875 28.25C24.7092 28.25 24.5503 28.1842 24.4331 28.0669C24.3158 27.9497 24.25 27.7908 24.25 27.625V20.4288C24.2501 20.0183 24.1693 19.6119 24.0123 19.2327C23.8553 18.8535 23.6252 18.509 23.335 18.2188L20.5 15.3837V18.615L21.5675 19.6825C21.6849 19.7997 21.7509 19.9587 21.751 20.1246C21.7511 20.2904 21.6853 20.4495 21.5681 20.5669C21.4509 20.6842 21.2919 20.7502 21.1261 20.7503C20.9602 20.7505 20.8011 20.6847 20.6838 20.5675L19.455 19.3375L19.4125 19.295L17.8825 17.765C17.7974 17.6767 17.6956 17.6062 17.583 17.5578C17.4703 17.5093 17.3492 17.4837 17.2265 17.4826C17.1039 17.4815 16.9823 17.5049 16.8688 17.5513C16.7553 17.5977 16.6522 17.6663 16.5656 17.7531C16.4789 17.8398 16.4104 17.943 16.3641 18.0565C16.3177 18.1701 16.2945 18.2917 16.2957 18.4143C16.297 18.5369 16.3226 18.6581 16.3712 18.7707C16.4198 18.8832 16.4904 18.985 16.5787 19.07L18.4425 20.9325C18.5007 20.9905 18.5469 21.0595 18.5785 21.1354C18.61 21.2114 18.6262 21.2928 18.6263 21.375V22.625C18.6263 22.9563 18.7578 23.2741 18.9919 23.5084C19.2261 23.7428 19.5437 23.8747 19.875 23.875C20.0408 23.875 20.1997 23.9408 20.3169 24.0581C20.4342 24.1753 20.5 24.3342 20.5 24.5V26.0625C20.5 26.6427 20.2695 27.1991 19.8593 27.6093C19.4491 28.0195 18.8927 28.25 18.3125 28.25H12.6875C12.1073 28.25 11.5509 28.0195 11.1407 27.6093C10.7305 27.1991 10.5 26.6427 10.5 26.0625V12.9375C10.5 11.73 11.48 10.75 12.6875 10.75ZM18 27H18.3125C18.5611 27 18.7996 26.9012 18.9754 26.7254C19.1512 26.5496 19.25 26.3111 19.25 26.0625V25.75H18.625C18.4592 25.75 18.3003 25.8158 18.1831 25.9331C18.0658 26.0503 18 26.2092 18 26.375V27ZM18.2625 24.535C17.9847 24.3005 17.7613 24.0082 17.6081 23.6786C17.4548 23.3489 17.3752 22.9898 17.375 22.6263V21.6337L17.1337 21.3925C16.8257 21.658 16.4574 21.8443 16.061 21.9353C15.6646 22.0263 15.252 22.0192 14.859 21.9147C14.466 21.8101 14.1044 21.6112 13.8056 21.3353C13.5068 21.0594 13.2798 20.7147 13.1444 20.3312C13.009 19.9477 12.9691 19.537 13.0284 19.1346C13.0876 18.7322 13.2441 18.3504 13.4843 18.0222C13.7245 17.694 14.0412 17.4293 14.4068 17.2512C14.7724 17.0731 15.176 16.9869 15.5825 17C15.6825 16.8833 15.7975 16.7762 15.9275 16.6788C16.3459 16.3657 16.8631 16.2137 17.3844 16.2507C17.9056 16.2876 18.3962 16.511 18.7662 16.88L19.25 17.365V14.5H18.625C18.1277 14.5 17.6508 14.3025 17.2992 13.9508C16.9475 13.5992 16.75 13.1223 16.75 12.625V12H14.25V12.625C14.25 13.1223 14.0525 13.5992 13.7008 13.9508C13.3492 14.3025 12.8723 14.5 12.375 14.5H11.75V24.5H12.375C12.8723 24.5 13.3492 24.6975 13.7008 25.0492C14.0525 25.4008 14.25 25.8777 14.25 26.375V27H16.75V26.375C16.7499 25.9406 16.9007 25.5196 17.1766 25.184C17.4524 24.8484 17.8363 24.619 18.2625 24.535ZM18.625 13.25H19.25V12.9375C19.25 12.6889 19.1512 12.4504 18.9754 12.2746C18.7996 12.0988 18.5611 12 18.3125 12H18V12.625C18 12.7908 18.0658 12.9497 18.1831 13.0669C18.3003 13.1842 18.4592 13.25 18.625 13.25ZM11.75 25.75V26.0625C11.75 26.58 12.17 27 12.6875 27H13V26.375C13 26.2092 12.9342 26.0503 12.8169 25.9331C12.6997 25.8158 12.5408 25.75 12.375 25.75H11.75ZM16.245 20.5038L15.695 19.9537C15.4821 19.7418 15.3157 19.4879 15.2064 19.2081C15.097 18.9283 15.0472 18.6289 15.06 18.3288C14.8931 18.3921 14.7418 18.4904 14.6161 18.6171C14.4904 18.7438 14.3933 18.896 14.3313 19.0634C14.2693 19.2308 14.2439 19.4095 14.2568 19.5875C14.2696 19.7655 14.3205 19.9387 14.4059 20.0955C14.4912 20.2522 14.6092 20.3888 14.7518 20.4962C14.8944 20.6035 15.0584 20.679 15.2326 20.7177C15.4068 20.7564 15.5874 20.7573 15.762 20.7204C15.9366 20.6835 16.1013 20.6096 16.245 20.5038Z" fill="#AC4185"/>
</svg>
