<svg width="36" height="39" viewBox="0 0 36 39" fill="none" xmlns="http://www.w3.org/2000/svg">
<rect width="36" height="38" transform="translate(0 0.5)" fill="#FCF7FA"/>
<path d="M10 14.25C10 13.5207 10.2897 12.8212 10.8055 12.3055C11.3212 11.7897 12.0207 11.5 12.75 11.5H23.25C23.9793 11.5 24.6788 11.7897 25.1945 12.3055C25.7103 12.8212 26 13.5207 26 14.25V20.5H25V17.5H16.707L18.354 19.146C18.4479 19.2399 18.5006 19.3672 18.5006 19.5C18.5006 19.6328 18.4479 19.7601 18.354 19.854C18.2601 19.9479 18.1328 20.0006 18 20.0006C17.8672 20.0006 17.7399 19.9479 17.646 19.854L16 18.207V22.5H17.121C17.0407 22.7201 16.9998 22.9527 17 23.187V23.5H12.75C12.0207 23.5 11.3212 23.2103 10.8055 22.6945C10.2897 22.1788 10 21.4793 10 20.75V14.25ZM11 17.5V20.75C11 21.716 11.784 22.5 12.75 22.5H15V18.207L13.354 19.854C13.2601 19.9479 13.1328 20.0006 13 20.0006C12.8672 20.0006 12.7399 19.9479 12.646 19.854C12.5521 19.7601 12.4994 19.6328 12.4994 19.5C12.4994 19.3672 12.5521 19.2399 12.646 19.146L14.293 17.5H11ZM12.268 16.5C12.0479 16.1187 11.9598 15.6755 12.0172 15.239C12.0747 14.8025 12.2746 14.3972 12.5859 14.0859C12.8972 13.7746 13.3025 13.5747 13.739 13.5172C14.1755 13.4598 14.6187 13.5479 15 13.768V12.5H12.75C12.2859 12.5 11.8408 12.6844 11.5126 13.0126C11.1844 13.3408 11 13.7859 11 14.25V16.5H12.268ZM14 16.5H15V15.5C15 15.3022 14.9414 15.1089 14.8315 14.9444C14.7216 14.78 14.5654 14.6518 14.3827 14.5761C14.2 14.5004 13.9989 14.4806 13.8049 14.5192C13.6109 14.5578 13.4327 14.653 13.2929 14.7929C13.153 14.9327 13.0578 15.1109 13.0192 15.3049C12.9806 15.4989 13.0004 15.7 13.0761 15.8827C13.1518 16.0654 13.28 16.2216 13.4444 16.3315C13.6089 16.4414 13.8022 16.5 14 16.5ZM16 15.5V16.5H17C17.1978 16.5 17.3911 16.4414 17.5556 16.3315C17.72 16.2216 17.8482 16.0654 17.9239 15.8827C17.9996 15.7 18.0194 15.4989 17.9808 15.3049C17.9422 15.1109 17.847 14.9327 17.7071 14.7929C17.5673 14.653 17.3891 14.5578 17.1951 14.5192C17.0011 14.4806 16.8 14.5004 16.6173 14.5761C16.4346 14.6518 16.2784 14.78 16.1685 14.9444C16.0586 15.1089 16 15.3022 16 15.5ZM18.732 16.5H25V14.25C25 13.7859 24.8156 13.3408 24.4874 13.0126C24.1592 12.6844 23.7141 12.5 23.25 12.5H16V13.768C16.3813 13.5479 16.8245 13.4598 17.261 13.5172C17.6975 13.5747 18.1028 13.7746 18.4141 14.0859C18.7254 14.3972 18.9253 14.8025 18.9828 15.239C19.0402 15.6755 18.9521 16.1187 18.732 16.5ZM27 23V26C27 26.3978 26.842 26.7794 26.5607 27.0607C26.2794 27.342 25.8978 27.5 25.5 27.5H19.5C19.1022 27.5 18.7206 27.342 18.4393 27.0607C18.158 26.7794 18 26.3978 18 26V23C18 22.6022 18.158 22.2206 18.4393 21.9393C18.7206 21.658 19.1022 21.5 19.5 21.5H25.5C25.8978 21.5 26.2794 21.658 26.5607 21.9393C26.842 22.2206 27 22.6022 27 23ZM26 26V25C25.6022 25 25.2206 25.158 24.9393 25.4393C24.658 25.7206 24.5 26.1022 24.5 26.5H25.5C25.5 26.3674 25.5527 26.2402 25.6464 26.1464C25.7402 26.0527 25.8674 26 26 26ZM25.5 22.5H24.5C24.5 22.8978 24.658 23.2794 24.9393 23.5607C25.2206 23.842 25.6022 24 26 24V23C25.8674 23 25.7402 22.9473 25.6464 22.8536C25.5527 22.7598 25.5 22.6326 25.5 22.5ZM19.5 22.5C19.5 22.6326 19.4473 22.7598 19.3536 22.8536C19.2598 22.9473 19.1326 23 19 23V24C19.3978 24 19.7794 23.842 20.0607 23.5607C20.342 23.2794 20.5 22.8978 20.5 22.5H19.5ZM19 26C19.1326 26 19.2598 26.0527 19.3536 26.1464C19.4473 26.2402 19.5 26.3674 19.5 26.5H20.5C20.5 26.1022 20.342 25.7206 20.0607 25.4393C19.7794 25.158 19.3978 25 19 25V26ZM22.5 23C22.1022 23 21.7206 23.158 21.4393 23.4393C21.158 23.7206 21 24.1022 21 24.5C21 24.8978 21.158 25.2794 21.4393 25.5607C21.7206 25.842 22.1022 26 22.5 26C22.8978 26 23.2794 25.842 23.5607 25.5607C23.842 25.2794 24 24.8978 24 24.5C24 24.1022 23.842 23.7206 23.5607 23.4393C23.2794 23.158 22.8978 23 22.5 23Z" fill="#42032B"/>
</svg>
