<svg width="36" height="39" viewBox="0 0 36 39" fill="none" xmlns="http://www.w3.org/2000/svg">
<rect width="36" height="38" transform="translate(0 0.5)" fill="#F5EDFF"/>
<path d="M17.5846 12C18.4039 11.9998 19.2007 12.2679 19.8532 12.7633C20.5057 13.2587 20.978 13.9541 21.198 14.7433L21.2413 14.9142L22.7996 14.525C22.9135 14.4966 23.0321 14.4927 23.1477 14.5134C23.2632 14.534 23.3731 14.5789 23.4701 14.645C23.5671 14.711 23.6491 14.7969 23.7106 14.8968C23.7721 14.9968 23.8118 15.1086 23.8271 15.225L23.8346 15.3333V16.8417C24.3047 17.2919 24.6897 17.8232 24.9713 18.41L25.0863 18.6667H25.5013C25.7054 18.6667 25.9024 18.7416 26.0549 18.8773C26.2075 19.0129 26.3049 19.1998 26.3288 19.4025L26.3346 19.5V22C26.3347 22.1372 26.3008 22.2722 26.2361 22.3932C26.1714 22.5141 26.0779 22.6172 25.9638 22.6933L25.8738 22.745L24.9005 23.2325C24.5027 24.0039 23.9254 24.6684 23.2171 25.17L23.0013 25.315V26.1667C23.0013 26.3708 22.9263 26.5678 22.7907 26.7203C22.6551 26.8728 22.4682 26.9703 22.2655 26.9942L22.168 27H19.668C19.4639 27 19.2669 26.925 19.1143 26.7894C18.9618 26.6538 18.8643 26.4669 18.8405 26.2642L18.8346 26.1667H18.0013C18.0013 26.3708 17.9263 26.5678 17.7907 26.7203C17.6551 26.8728 17.4682 26.9703 17.2655 26.9942L17.168 27H14.668C14.4639 27 14.2669 26.925 14.1143 26.7894C13.9618 26.6538 13.8643 26.4669 13.8405 26.2642L13.8346 26.1667V25.315C13.2324 24.9304 12.7122 24.4304 12.304 23.8439C11.8958 23.2574 11.6077 22.5959 11.4563 21.8975C10.9648 21.7515 10.5301 21.4578 10.2111 21.0564C9.89206 20.655 9.7042 20.1651 9.67297 19.6533L9.66797 19.5V19.0833C9.6682 18.8709 9.74953 18.6666 9.89534 18.5122C10.0412 18.3577 10.2404 18.2648 10.4525 18.2524C10.6645 18.2399 10.8733 18.3089 11.0362 18.4452C11.199 18.5815 11.3037 18.7749 11.3288 18.9858L11.3346 19.0833V19.5C11.3357 19.6244 11.3607 19.7397 11.4096 19.8458C11.5366 19.0955 11.8203 18.3804 12.2421 17.747C12.664 17.1137 13.2146 16.5763 13.858 16.17C13.7988 15.6454 13.8511 15.1142 14.0115 14.6112C14.1718 14.1083 14.4365 13.6448 14.7883 13.2512C15.14 12.8575 15.571 12.5426 16.0529 12.327C16.5347 12.1114 17.0567 12 17.5846 12ZM22.168 16.4L19.8696 16.975L19.7696 16.9942L19.668 17H16.7513C15.9087 16.9994 15.0905 17.2827 14.4285 17.804C13.7666 18.3254 13.2995 19.0545 13.1026 19.8738C12.9058 20.6931 12.9905 21.5548 13.3433 22.32C13.6961 23.0852 14.2963 23.7093 15.0471 24.0917C15.1681 24.1535 15.2721 24.244 15.3501 24.3553C15.4281 24.4665 15.4777 24.5952 15.4946 24.73L15.5013 24.8333V25.3333H16.3346C16.3347 25.1292 16.4096 24.9322 16.5452 24.7797C16.6809 24.6272 16.8678 24.5297 17.0705 24.5058L17.168 24.5H19.668C19.8721 24.5 20.0691 24.575 20.2216 24.7106C20.3741 24.8462 20.4716 25.0331 20.4955 25.2358L20.5013 25.3333H21.3346V24.8333C21.3347 24.6799 21.3772 24.5294 21.4573 24.3986C21.5374 24.2677 21.6522 24.1615 21.7888 24.0917C22.5536 23.7004 23.1617 23.0594 23.5121 22.275C23.5747 22.1347 23.6747 22.0145 23.8013 21.9275L23.9005 21.8692L24.668 21.485V20.3333H24.4955C24.314 20.3333 24.1375 20.274 23.9928 20.1645C23.8482 20.055 23.7432 19.9013 23.6938 19.7267C23.4855 18.9935 23.0588 18.3412 22.4705 17.8567C22.3073 17.7218 22.2015 17.53 22.1746 17.32L22.168 17.2142V16.4ZM21.3346 18.6667C21.5556 18.6667 21.7676 18.7545 21.9239 18.9107C22.0802 19.067 22.168 19.279 22.168 19.5C22.168 19.721 22.0802 19.933 21.9239 20.0893C21.7676 20.2455 21.5556 20.3333 21.3346 20.3333C21.1136 20.3333 20.9017 20.2455 20.7454 20.0893C20.5891 19.933 20.5013 19.721 20.5013 19.5C20.5013 19.279 20.5891 19.067 20.7454 18.9107C20.9017 18.7545 21.1136 18.6667 21.3346 18.6667ZM17.5846 13.6667C17.0799 13.6667 16.5923 13.8499 16.2125 14.1824C15.8327 14.5148 15.5865 14.9739 15.5196 15.4742C15.9234 15.3802 16.3367 15.333 16.7513 15.3333H19.5655L19.6238 15.3192C19.525 14.8516 19.2684 14.4323 18.8972 14.1314C18.5259 13.8306 18.0625 13.6665 17.5846 13.6667Z" fill="#3A037F"/>
</svg>
